<?xml version="1.0" encoding="utf-8" standalone="no"?>
<!DOCTYPE svg PUBLIC "-//W3C//DTD SVG 1.1//EN"
  "http://www.w3.org/Graphics/SVG/1.1/DTD/svg11.dtd">
<svg height="1152pt" version="1.1" viewBox="0 0 648 1152" width="648pt" xmlns="http://www.w3.org/2000/svg" xmlns:xlink="http://www.w3.org/1999/xlink">
 <metadata>
  <rdf:RDF xmlns:cc="http://creativecommons.org/ns#" xmlns:dc="http://purl.org/dc/elements/1.1/" xmlns:rdf="http://www.w3.org/1999/02/22-rdf-syntax-ns#">
   <cc:Work>
    <dc:type rdf:resource="http://purl.org/dc/dcmitype/StillImage"/>
    <dc:date>2021-10-15T17:26:19.505585</dc:date>
    <dc:format>image/svg+xml</dc:format>
    <dc:creator>
     <cc:Agent>
      <dc:title>Matplotlib v3.4.2, https://matplotlib.org/</dc:title>
     </cc:Agent>
    </dc:creator>
   </cc:Work>
  </rdf:RDF>
 </metadata>
 <defs>
  <style type="text/css">*{stroke-linecap:butt;stroke-linejoin:round;}</style>
 </defs>
 <g id="figure_1">
  <g id="patch_1">
   <path d="M 0 1152 
L 648 1152 
L 648 0 
L 0 0 
z
" style="fill:none;"/>
  </g>
  <g id="axes_1">
   <g id="PathCollection_1">
    <defs>
     <path d="M 0 1.118034 
C 0.296506 1.118034 0.580908 1.000231 0.790569 0.790569 
C 1.000231 0.580908 1.118034 0.296506 1.118034 0 
C 1.118034 -0.296506 1.000231 -0.580908 0.790569 -0.790569 
C 0.580908 -1.000231 0.296506 -1.118034 0 -1.118034 
C -0.296506 -1.118034 -0.580908 -1.000231 -0.790569 -0.790569 
C -1.000231 -0.580908 -1.118034 -0.296506 -1.118034 0 
C -1.118034 0.296506 -1.000231 0.580908 -0.790569 0.790569 
C -0.580908 1.000231 -0.296506 1.118034 0 1.118034 
z
" id="m6d01979dad" style="stroke:#ffc400;"/>
    </defs>
    <g clip-path="url(#p3f6709877f)">
     <use style="fill:#ffc400;stroke:#ffc400;" x="537.606922" xlink:href="#m6d01979dad" y="288.077188"/>
     <use style="fill:#ffc400;stroke:#ffc400;" x="579.543164" xlink:href="#m6d01979dad" y="338.566359"/>
     <use style="fill:#ffc400;stroke:#ffc400;" x="591.685597" xlink:href="#m6d01979dad" y="344.139228"/>
     <use style="fill:#ffc400;stroke:#ffc400;" x="554.894505" xlink:href="#m6d01979dad" y="277.667743"/>
     <use style="fill:#ffc400;stroke:#ffc400;" x="588.64541" xlink:href="#m6d01979dad" y="416.05182"/>
     <use style="fill:#ffc400;stroke:#ffc400;" x="480.319429" xlink:href="#m6d01979dad" y="142.148311"/>
     <use style="fill:#ffc400;stroke:#ffc400;" x="543.986759" xlink:href="#m6d01979dad" y="380.482458"/>
     <use style="fill:#ffc400;stroke:#ffc400;" x="506.674641" xlink:href="#m6d01979dad" y="312.68172"/>
     <use style="fill:#ffc400;stroke:#ffc400;" x="116.704752" xlink:href="#m6d01979dad" y="1078.451984"/>
     <use style="fill:#ffc400;stroke:#ffc400;" x="562.560282" xlink:href="#m6d01979dad" y="263.328459"/>
     <use style="fill:#ffc400;stroke:#ffc400;" x="546.302375" xlink:href="#m6d01979dad" y="302.777363"/>
     <use style="fill:#ffc400;stroke:#ffc400;" x="554.665598" xlink:href="#m6d01979dad" y="282.181106"/>
     <use style="fill:#ffc400;stroke:#ffc400;" x="567.190911" xlink:href="#m6d01979dad" y="251.580732"/>
     <use style="fill:#ffc400;stroke:#ffc400;" x="539.039588" xlink:href="#m6d01979dad" y="359.199405"/>
     <use style="fill:#ffc400;stroke:#ffc400;" x="526.055354" xlink:href="#m6d01979dad" y="274.777521"/>
     <use style="fill:#ffc400;stroke:#ffc400;" x="554.659024" xlink:href="#m6d01979dad" y="245.628916"/>
     <use style="fill:#ffc400;stroke:#ffc400;" x="557.954425" xlink:href="#m6d01979dad" y="241.125878"/>
     <use style="fill:#ffc400;stroke:#ffc400;" x="594.135505" xlink:href="#m6d01979dad" y="338.848216"/>
     <use style="fill:#ffc400;stroke:#ffc400;" x="544.066471" xlink:href="#m6d01979dad" y="360.362735"/>
     <use style="fill:#ffc400;stroke:#ffc400;" x="562.059576" xlink:href="#m6d01979dad" y="340.362928"/>
     <use style="fill:#ffc400;stroke:#ffc400;" x="479.873774" xlink:href="#m6d01979dad" y="126.064175"/>
     <use style="fill:#ffc400;stroke:#ffc400;" x="608.727273" xlink:href="#m6d01979dad" y="369.500947"/>
     <use style="fill:#ffc400;stroke:#ffc400;" x="556.309893" xlink:href="#m6d01979dad" y="230.91454"/>
     <use style="fill:#ffc400;stroke:#ffc400;" x="100.787712" xlink:href="#m6d01979dad" y="1089.818182"/>
     <use style="fill:#ffc400;stroke:#ffc400;" x="569.748378" xlink:href="#m6d01979dad" y="262.824895"/>
     <use style="fill:#ffc400;stroke:#ffc400;" x="558.608655" xlink:href="#m6d01979dad" y="337.686975"/>
     <use style="fill:#ffc400;stroke:#ffc400;" x="548.84121" xlink:href="#m6d01979dad" y="340.180232"/>
     <use style="fill:#ffc400;stroke:#ffc400;" x="482.110325" xlink:href="#m6d01979dad" y="138.174079"/>
     <use style="fill:#ffc400;stroke:#ffc400;" x="576.588904" xlink:href="#m6d01979dad" y="302.039098"/>
     <use style="fill:#ffc400;stroke:#ffc400;" x="605.362495" xlink:href="#m6d01979dad" y="334.501158"/>
     <use style="fill:#ffc400;stroke:#ffc400;" x="535.808375" xlink:href="#m6d01979dad" y="326.563088"/>
     <use style="fill:#ffc400;stroke:#ffc400;" x="525.425436" xlink:href="#m6d01979dad" y="280.299609"/>
     <use style="fill:#ffc400;stroke:#ffc400;" x="487.586846" xlink:href="#m6d01979dad" y="124.57239"/>
     <use style="fill:#ffc400;stroke:#ffc400;" x="424.018971" xlink:href="#m6d01979dad" y="236.300249"/>
     <use style="fill:#ffc400;stroke:#ffc400;" x="549.331977" xlink:href="#m6d01979dad" y="367.713835"/>
     <use style="fill:#ffc400;stroke:#ffc400;" x="567.441378" xlink:href="#m6d01979dad" y="417.505668"/>
     <use style="fill:#ffc400;stroke:#ffc400;" x="560.378432" xlink:href="#m6d01979dad" y="324.231112"/>
     <use style="fill:#ffc400;stroke:#ffc400;" x="605.702564" xlink:href="#m6d01979dad" y="292.480555"/>
     <use style="fill:#ffc400;stroke:#ffc400;" x="534.873679" xlink:href="#m6d01979dad" y="508.220969"/>
     <use style="fill:#ffc400;stroke:#ffc400;" x="39.272727" xlink:href="#m6d01979dad" y="884.349896"/>
     <use style="fill:#ffc400;stroke:#ffc400;" x="554.938314" xlink:href="#m6d01979dad" y="426.286353"/>
     <use style="fill:#ffc400;stroke:#ffc400;" x="544.516725" xlink:href="#m6d01979dad" y="361.187888"/>
     <use style="fill:#ffc400;stroke:#ffc400;" x="551.794887" xlink:href="#m6d01979dad" y="329.85129"/>
     <use style="fill:#ffc400;stroke:#ffc400;" x="543.149933" xlink:href="#m6d01979dad" y="345.026373"/>
     <use style="fill:#ffc400;stroke:#ffc400;" x="555.799766" xlink:href="#m6d01979dad" y="533.532738"/>
     <use style="fill:#ffc400;stroke:#ffc400;" x="465.325171" xlink:href="#m6d01979dad" y="243.939109"/>
     <use style="fill:#ffc400;stroke:#ffc400;" x="561.53298" xlink:href="#m6d01979dad" y="308.83059"/>
     <use style="fill:#ffc400;stroke:#ffc400;" x="595.25533" xlink:href="#m6d01979dad" y="62.181818"/>
     <use style="fill:#ffc400;stroke:#ffc400;" x="577.49224" xlink:href="#m6d01979dad" y="514.503819"/>
     <use style="fill:#ffc400;stroke:#ffc400;" x="534.524809" xlink:href="#m6d01979dad" y="383.762995"/>
     <use style="fill:#ffc400;stroke:#ffc400;" x="541.348418" xlink:href="#m6d01979dad" y="354.335028"/>
     <use style="fill:#ffc400;stroke:#ffc400;" x="565.494381" xlink:href="#m6d01979dad" y="443.43022"/>
     <use style="fill:#ffc400;stroke:#ffc400;" x="544.945693" xlink:href="#m6d01979dad" y="295.483528"/>
    </g>
   </g>
   <g id="text_1">
    <!-- 好き -->
    <g style="fill:#8cfff6;" transform="translate(537.606922 288.077188)scale(0.1 -0.1)">
     <defs>
      <path d="M 2844 4025 
Q 2756 2238 2247 1172 
Q 2509 966 2991 544 
L 2716 141 
Q 2419 447 2044 775 
Q 1625 44 903 -488 
L 559 -122 
Q 1263 313 1709 1056 
Q 1363 1331 1056 1528 
Q 1000 1338 897 1031 
L 525 1266 
Q 909 2438 1128 3616 
L 481 3616 
L 481 4025 
L 1203 4025 
Q 1288 4516 1391 5253 
L 1825 5166 
L 1763 4756 
Q 1672 4191 1641 4025 
L 2844 4025 
z
M 2369 3616 
L 1563 3616 
Q 1450 2969 1172 1913 
Q 1528 1703 1903 1434 
Q 2266 2269 2369 3591 
L 2369 3616 
z
M 4706 3316 
L 4706 2553 
L 6119 2553 
L 6119 2131 
L 4744 2131 
L 4744 141 
Q 4744 -353 4181 -353 
Q 3788 -353 3416 -313 
L 3325 159 
Q 3756 100 4081 100 
Q 4291 100 4291 294 
L 4291 2131 
L 2838 2131 
L 2838 2553 
L 4253 2553 
L 4253 3456 
Q 4291 3494 4322 3513 
Q 4791 3894 5166 4366 
L 3050 4366 
L 3050 4781 
L 5653 4781 
L 5891 4525 
Q 5331 3844 4706 3316 
z
" id="IPAexGothic-597d" transform="scale(0.015625)"/>
      <path d="M 2944 1600 
Q 2369 1600 2053 1428 
Q 1772 1275 1772 1019 
Q 1772 666 2200 481 
Q 2600 309 3903 309 
Q 4138 309 4397 331 
L 4422 -147 
Q 4203 -166 3969 -166 
Q 2325 -166 1819 141 
Q 1313 444 1313 994 
Q 1313 1447 1791 1738 
Q 2219 1997 2859 1997 
Q 3319 1997 3606 1947 
Q 3894 1894 4216 1759 
Q 3953 2050 3506 2791 
Q 2263 2547 1191 2491 
L 1094 2956 
Q 2263 2966 3281 3175 
Q 3019 3647 2950 3794 
Q 2125 3641 1253 3622 
L 1166 4063 
Q 2013 4063 2750 4184 
Q 2478 4744 2381 4984 
L 2841 5131 
Q 2925 4916 3213 4281 
Q 3888 4438 4459 4709 
L 4672 4313 
Q 4119 4056 3409 3891 
Q 3638 3447 3738 3284 
Q 4528 3503 5113 3794 
L 5331 3366 
Q 4738 3094 3953 2900 
Q 4272 2366 4903 1484 
L 4575 1147 
Q 3888 1600 2944 1600 
z
" id="IPAexGothic-304d" transform="scale(0.015625)"/>
     </defs>
     <use xlink:href="#IPAexGothic-597d"/>
     <use x="100" xlink:href="#IPAexGothic-304d"/>
    </g>
   </g>
   <g id="text_2">
    <!-- 動 -->
    <g style="fill:#8cfff6;" transform="translate(579.543164 338.566359)scale(0.1 -0.1)">
     <defs>
      <path d="M 1803 3425 
L 1803 3794 
L 372 3794 
L 372 4147 
L 1803 4147 
L 1803 4556 
Q 1250 4500 634 4466 
L 506 4819 
Q 1997 4903 3091 5159 
L 3378 4794 
Q 2803 4678 2219 4606 
L 2219 4147 
L 3538 4147 
L 3538 3794 
L 2219 3794 
L 2219 3425 
L 3378 3425 
L 3378 1569 
L 2219 1569 
L 2219 1178 
L 3447 1178 
L 3447 825 
L 2219 825 
L 2219 384 
Q 2934 459 3544 569 
L 3544 231 
Q 2569 22 416 -206 
L 294 197 
Q 791 238 1284 288 
L 1803 338 
L 1803 825 
L 581 825 
L 581 1178 
L 1803 1178 
L 1803 1569 
L 678 1569 
L 678 3425 
L 1803 3425 
z
M 1816 3100 
L 1075 3100 
L 1075 2669 
L 1816 2669 
L 1816 3100 
z
M 2206 3100 
L 2206 2669 
L 2981 2669 
L 2981 3100 
L 2206 3100 
z
M 1816 2350 
L 1075 2350 
L 1075 1894 
L 1816 1894 
L 1816 2350 
z
M 2206 2350 
L 2206 1894 
L 2981 1894 
L 2981 2350 
L 2206 2350 
z
M 4806 3469 
Q 4797 2084 4628 1338 
Q 4375 250 3572 -459 
L 3238 -141 
Q 3975 481 4225 1550 
Q 4378 2213 4378 3413 
L 3559 3413 
L 3559 3828 
L 4384 3828 
L 4384 5209 
L 4813 5209 
L 4813 3878 
L 5931 3878 
Q 5931 941 5766 128 
Q 5669 -347 5144 -347 
Q 4838 -347 4500 -294 
L 4422 197 
Q 4797 100 5069 100 
Q 5294 100 5344 369 
Q 5484 1053 5503 3200 
L 5503 3469 
L 4806 3469 
z
" id="IPAexGothic-52d5" transform="scale(0.015625)"/>
     </defs>
     <use xlink:href="#IPAexGothic-52d5"/>
    </g>
   </g>
   <g id="text_3">
    <!-- 設定 -->
    <g style="fill:#8cfff6;" transform="translate(591.685597 344.139228)scale(0.1 -0.1)">
     <defs>
      <path d="M 2388 1684 
L 2388 -128 
L 959 -128 
L 959 -447 
L 538 -447 
L 538 1684 
L 2388 1684 
z
M 959 1313 
L 959 244 
L 1966 244 
L 1966 1313 
L 959 1313 
z
M 4969 4984 
L 4969 3441 
Q 4969 3256 5225 3256 
Q 5472 3256 5500 3384 
Q 5538 3509 5556 3941 
L 5981 3800 
Q 5950 3134 5813 2988 
Q 5688 2853 5225 2853 
Q 4753 2853 4625 2963 
Q 4528 3050 4528 3238 
L 4528 4575 
L 3681 4575 
L 3681 4409 
Q 3681 3675 3478 3256 
Q 3303 2916 2900 2628 
L 2606 2950 
Q 3028 3253 3156 3634 
Q 3253 3922 3253 4363 
L 3253 4984 
L 4969 4984 
z
M 4591 766 
Q 5241 306 6081 56 
L 5800 -403 
Q 4984 -97 4284 459 
Q 3581 -166 2766 -500 
L 2484 -122 
Q 3303 159 3963 753 
Q 3416 1300 3053 2053 
L 2722 2053 
L 2722 2463 
L 5344 2463 
L 5563 2278 
Q 5247 1478 4591 766 
z
M 4269 1041 
Q 4719 1519 4981 2053 
L 3503 2053 
Q 3794 1500 4269 1041 
z
M 634 5044 
L 2294 5044 
L 2294 4659 
L 634 4659 
L 634 5044 
z
M 347 4206 
L 2625 4206 
L 2625 3816 
L 347 3816 
L 347 4206 
z
M 634 3359 
L 2294 3359 
L 2294 2975 
L 634 2975 
L 634 3359 
z
M 634 2522 
L 2294 2522 
L 2294 2138 
L 634 2138 
L 634 2522 
z
" id="IPAexGothic-8a2d" transform="scale(0.015625)"/>
      <path d="M 3431 303 
Q 3931 225 4709 225 
Q 5191 225 6053 263 
Q 5963 59 5888 -228 
Q 5234 -250 4844 -250 
Q 3569 -250 3003 -78 
Q 2259 153 1750 903 
Q 1441 163 806 -459 
L 475 -75 
Q 1416 759 1684 2419 
L 2125 2303 
Q 2031 1756 1909 1356 
Q 2338 678 2972 416 
L 2972 2944 
L 1434 2944 
L 1434 3353 
L 4959 3353 
L 4959 2944 
L 3431 2944 
L 3431 1984 
L 5397 1984 
L 5397 1569 
L 3431 1569 
L 3431 303 
z
M 3419 4428 
L 5750 4428 
L 5750 3166 
L 5275 3166 
L 5275 4025 
L 1122 4025 
L 1122 3166 
L 647 3166 
L 647 4428 
L 2938 4428 
L 2938 5313 
L 3419 5313 
L 3419 4428 
z
" id="IPAexGothic-5b9a" transform="scale(0.015625)"/>
     </defs>
     <use xlink:href="#IPAexGothic-8a2d"/>
     <use x="100" xlink:href="#IPAexGothic-5b9a"/>
    </g>
   </g>
   <g id="text_4">
    <!-- 必要 -->
    <g style="fill:#8cfff6;" transform="translate(554.894505 277.667743)scale(0.1 -0.1)">
     <defs>
      <path d="M 1984 922 
L 1984 3769 
L 2459 3769 
L 2459 1344 
Q 4031 2828 4719 4825 
L 5172 4634 
Q 4263 2306 2459 722 
L 2459 569 
Q 2459 316 2631 266 
Q 2775 222 3363 222 
Q 4100 222 4272 313 
Q 4463 419 4481 1459 
L 4969 1325 
Q 4919 244 4738 13 
Q 4547 -238 3406 -238 
Q 2456 -238 2234 -134 
Q 1994 -28 1984 341 
Q 1409 -97 709 -469 
L 403 -78 
Q 1197 284 1906 863 
L 1984 922 
z
M 3397 3700 
Q 2672 4338 1931 4722 
L 2241 5100 
Q 2972 4713 3731 4116 
L 3397 3700 
z
M 403 1106 
Q 788 1972 934 3263 
L 1416 3166 
Q 1244 1781 844 838 
L 403 1106 
z
M 5678 941 
Q 5266 2097 4781 2894 
L 5184 3097 
Q 5725 2294 6131 1216 
L 5678 941 
z
" id="IPAexGothic-5fc5" transform="scale(0.015625)"/>
      <path d="M 2278 4025 
L 2278 4581 
L 528 4581 
L 528 4978 
L 5856 4978 
L 5856 4581 
L 4081 4581 
L 4081 4025 
L 5522 4025 
L 5522 2547 
L 863 2547 
L 863 4025 
L 2278 4025 
z
M 2694 4025 
L 3659 4025 
L 3659 4581 
L 2694 4581 
L 2694 4025 
z
M 2278 3666 
L 1316 3666 
L 1316 2906 
L 2278 2906 
L 2278 3666 
z
M 2694 3666 
L 2694 2906 
L 3659 2906 
L 3659 3666 
L 2694 3666 
z
M 4081 3666 
L 4081 2906 
L 5075 2906 
L 5075 3666 
L 4081 3666 
z
M 3066 338 
Q 2547 503 1694 722 
L 1503 775 
Q 1816 1141 2066 1503 
L 447 1503 
L 447 1900 
L 2316 1900 
Q 2497 2225 2641 2516 
L 3084 2366 
Q 2984 2172 2834 1900 
L 5950 1900 
L 5950 1503 
L 4619 1503 
Q 4369 878 3988 484 
Q 4750 263 5797 -91 
L 5413 -488 
Q 4441 -100 3597 172 
Q 2706 -406 869 -531 
L 625 -97 
Q 2122 -28 3066 338 
z
M 3513 619 
Q 3934 1025 4134 1503 
L 2597 1503 
Q 2413 1213 2238 984 
L 2213 953 
Q 2656 853 3513 619 
z
" id="IPAexGothic-8981" transform="scale(0.015625)"/>
     </defs>
     <use xlink:href="#IPAexGothic-5fc5"/>
     <use x="100" xlink:href="#IPAexGothic-8981"/>
    </g>
   </g>
   <g id="text_5">
    <!-- 勉強 -->
    <g style="fill:#8cfff6;" transform="translate(588.64541 416.05182)scale(0.1 -0.1)">
     <defs>
      <path d="M 4253 3938 
L 4253 5172 
L 4681 5172 
L 4681 3963 
L 5806 3963 
Q 5806 1628 5694 1041 
Q 5606 588 5059 588 
Q 4725 588 4503 631 
L 4438 1069 
Q 4741 997 4975 997 
Q 5241 997 5291 1291 
Q 5369 1831 5378 3378 
L 5384 3559 
L 4675 3559 
Q 4656 2647 4472 1969 
Q 4213 1066 3528 441 
L 3206 728 
Q 4228 1719 4247 3534 
L 3425 3534 
L 3425 1816 
L 2709 1816 
L 2709 428 
Q 2709 181 2856 131 
Q 3028 75 4169 75 
Q 5519 75 5622 234 
Q 5684 328 5731 869 
L 6159 747 
Q 6122 -41 5878 -206 
Q 5653 -353 4081 -353 
Q 2772 -353 2513 -256 
Q 2281 -172 2281 172 
L 2281 1816 
L 1813 1816 
Q 1794 984 1606 525 
Q 1347 -103 547 -500 
L 263 -147 
Q 1109 253 1294 959 
Q 1378 1291 1378 1816 
L 738 1816 
L 738 3244 
Q 681 3175 463 2956 
L 206 3303 
Q 1038 4075 1484 5319 
L 1900 5234 
Q 1800 4953 1741 4819 
L 2747 4819 
L 3003 4613 
Q 2703 4025 2384 3591 
L 3413 3591 
L 3413 3938 
L 4253 3938 
z
M 1947 3591 
Q 2269 4047 2447 4441 
L 1563 4441 
Q 1334 3997 1063 3641 
L 1025 3591 
L 1947 3591 
z
M 1159 3219 
L 1159 2175 
L 1863 2175 
L 1863 3219 
L 1159 3219 
z
M 3003 2175 
L 3003 3219 
L 2272 3219 
L 2272 2175 
L 3003 2175 
z
" id="IPAexGothic-52c9" transform="scale(0.015625)"/>
      <path d="M 2144 2222 
Q 2097 375 1928 -141 
Q 1822 -469 1356 -469 
Q 1025 -469 684 -409 
L 622 50 
Q 1050 -41 1256 -41 
Q 1497 -41 1544 159 
Q 1653 597 1703 1759 
L 1703 1831 
L 819 1831 
Q 791 1603 756 1384 
L 353 1478 
Q 528 2644 556 3597 
L 1697 3597 
L 1697 4588 
L 378 4588 
L 378 4978 
L 2106 4978 
L 2106 2888 
L 1697 2888 
L 1697 3213 
L 941 3213 
Q 934 2869 872 2222 
L 2144 2222 
z
M 3931 3394 
L 3375 3347 
Q 2628 3294 2459 3284 
L 2331 3700 
Q 2772 3709 2963 3719 
Q 3431 4450 3778 5325 
L 4231 5172 
Q 3809 4281 3431 3738 
L 3669 3750 
Q 4434 3784 5147 3859 
Q 4888 4225 4675 4456 
L 5000 4678 
Q 5547 4103 5959 3450 
L 5588 3188 
Q 5419 3456 5359 3547 
Q 4900 3478 4347 3431 
L 4347 2784 
L 5666 2784 
L 5666 1209 
L 4347 1209 
L 4347 231 
Q 4872 272 5288 331 
Q 5119 644 4944 881 
L 5322 1056 
Q 5772 475 6094 -238 
L 5678 -500 
Q 5594 -278 5456 13 
L 5416 6 
Q 4275 -225 2406 -359 
L 2259 97 
Q 3019 122 3853 184 
L 3931 191 
L 3931 1209 
L 3053 1209 
L 3053 844 
L 2638 844 
L 2638 2784 
L 3931 2784 
L 3931 3394 
z
M 3931 2413 
L 3053 2413 
L 3053 1581 
L 3931 1581 
L 3931 2413 
z
M 4347 2413 
L 4347 1581 
L 5244 1581 
L 5244 2413 
L 4347 2413 
z
" id="IPAexGothic-5f37" transform="scale(0.015625)"/>
     </defs>
     <use xlink:href="#IPAexGothic-52c9"/>
     <use x="100" xlink:href="#IPAexGothic-5f37"/>
    </g>
   </g>
   <g id="text_6">
    <!-- よ -->
    <g style="fill:#8cfff6;" transform="translate(480.319429 142.148311)scale(0.1 -0.1)">
     <defs>
      <path d="M 2784 5019 
L 3272 5019 
Q 3247 4378 3272 3647 
Q 4184 3719 4850 3903 
L 4997 3431 
Q 4369 3291 3272 3200 
Q 3288 2366 3378 1550 
Q 4134 1353 5344 647 
L 5031 213 
Q 4244 759 3406 1044 
L 3413 891 
Q 3434 359 3122 84 
Q 2863 -141 2272 -141 
Q 1641 -141 1272 116 
Q 934 350 934 738 
Q 934 1294 1500 1534 
Q 1841 1678 2278 1678 
Q 2581 1678 2906 1631 
Q 2813 2559 2784 5019 
z
M 2931 1178 
Q 2613 1244 2369 1244 
Q 1422 1244 1422 794 
Q 1422 300 2278 300 
Q 2956 300 2938 934 
L 2931 1178 
z
" id="IPAexGothic-3088" transform="scale(0.015625)"/>
     </defs>
     <use xlink:href="#IPAexGothic-3088"/>
    </g>
   </g>
   <g id="text_7">
    <!-- 時間 -->
    <g style="fill:#8cfff6;" transform="translate(543.986759 380.482458)scale(0.1 -0.1)">
     <defs>
      <path d="M 2328 4728 
L 2328 563 
L 934 563 
L 934 56 
L 519 56 
L 519 4728 
L 2328 4728 
z
M 934 4331 
L 934 2881 
L 1906 2881 
L 1906 4331 
L 934 4331 
z
M 934 2497 
L 934 953 
L 1906 953 
L 1906 2497 
L 934 2497 
z
M 3938 4372 
L 3938 5313 
L 4378 5313 
L 4378 4372 
L 5772 4372 
L 5772 3981 
L 4378 3981 
L 4378 3194 
L 6072 3194 
L 6072 2803 
L 5203 2803 
L 5203 2047 
L 5959 2047 
L 5959 1650 
L 5216 1650 
L 5216 31 
Q 5216 -447 4691 -447 
Q 4394 -447 3888 -391 
L 3784 78 
Q 4272 0 4591 0 
Q 4775 0 4775 172 
L 4775 1650 
L 2581 1650 
L 2581 2047 
L 4763 2047 
L 4763 2803 
L 2538 2803 
L 2538 3194 
L 3938 3194 
L 3938 3981 
L 2716 3981 
L 2716 4372 
L 3938 4372 
z
M 3669 384 
Q 3331 950 2956 1325 
L 3291 1575 
Q 3719 1147 4025 659 
L 3669 384 
z
" id="IPAexGothic-6642" transform="scale(0.015625)"/>
      <path d="M 4450 2566 
L 4450 353 
L 2375 353 
L 2375 -25 
L 1953 -25 
L 1953 2566 
L 4450 2566 
z
M 4028 2200 
L 2375 2200 
L 2375 1653 
L 4028 1653 
L 4028 2200 
z
M 4028 1300 
L 2375 1300 
L 2375 719 
L 4028 719 
L 4028 1300 
z
M 2913 5019 
L 2913 3059 
L 1056 3059 
L 1056 -447 
L 609 -447 
L 609 5019 
L 2913 5019 
z
M 1056 4659 
L 1056 4206 
L 2497 4206 
L 2497 4659 
L 1056 4659 
z
M 1056 3881 
L 1056 3413 
L 2497 3413 
L 2497 3881 
L 1056 3881 
z
M 5788 5019 
L 5788 91 
Q 5788 -225 5641 -331 
Q 5525 -409 5231 -409 
Q 4803 -409 4481 -366 
L 4419 97 
Q 4853 38 5128 38 
Q 5341 38 5341 244 
L 5341 3059 
L 3438 3059 
L 3438 5019 
L 5788 5019 
z
M 3853 4659 
L 3853 4206 
L 5341 4206 
L 5341 4659 
L 3853 4659 
z
M 3853 3881 
L 3853 3413 
L 5341 3413 
L 5341 3881 
L 3853 3881 
z
" id="IPAexGothic-9593" transform="scale(0.015625)"/>
     </defs>
     <use xlink:href="#IPAexGothic-6642"/>
     <use x="100" xlink:href="#IPAexGothic-9593"/>
    </g>
   </g>
   <g id="text_8">
    <!-- 持 -->
    <g style="fill:#8cfff6;" transform="translate(506.674641 312.68172)scale(0.1 -0.1)">
     <defs>
      <path d="M 5106 2803 
L 5106 2047 
L 5931 2047 
L 5931 1650 
L 5119 1650 
L 5119 78 
Q 5119 -219 4972 -325 
Q 4863 -409 4550 -409 
Q 4138 -409 3769 -378 
L 3700 91 
Q 4072 25 4466 25 
Q 4666 25 4666 231 
L 4666 1650 
L 2431 1650 
L 2431 2047 
L 4653 2047 
L 4653 2803 
L 2316 2803 
L 2316 3200 
L 3847 3200 
L 3847 3981 
L 2625 3981 
L 2625 4372 
L 3847 4372 
L 3847 5313 
L 4294 5313 
L 4294 4372 
L 5706 4372 
L 5706 3981 
L 4294 3981 
L 4294 3200 
L 6066 3200 
L 6066 2803 
L 5106 2803 
z
M 1303 4006 
L 1303 5313 
L 1744 5313 
L 1744 4006 
L 2494 4006 
L 2494 3591 
L 1744 3591 
L 1744 2388 
Q 1788 2400 2500 2613 
L 2538 2234 
Q 2025 2053 1744 1972 
L 1744 -13 
Q 1744 -291 1609 -378 
Q 1500 -447 1219 -447 
Q 959 -447 606 -416 
L 522 56 
Q 859 0 1109 0 
Q 1303 0 1303 191 
L 1303 1831 
Q 941 1722 472 1606 
L 325 2047 
Q 734 2125 1238 2253 
L 1303 2272 
L 1303 3591 
L 406 3591 
L 406 4006 
L 1303 4006 
z
M 3563 366 
Q 3209 934 2816 1319 
L 3172 1569 
Q 3594 1175 3934 653 
L 3563 366 
z
" id="IPAexGothic-6301" transform="scale(0.015625)"/>
     </defs>
     <use xlink:href="#IPAexGothic-6301"/>
    </g>
   </g>
   <g id="text_9">
    <!-- リニア -->
    <g style="fill:#8cfff6;" transform="translate(116.704752 1078.451984)scale(0.1 -0.1)">
     <defs>
      <path d="M 1678 4788 
L 2222 4788 
L 2222 1900 
L 1678 1900 
L 1678 4788 
z
M 4084 4909 
L 4628 4909 
L 4628 2753 
Q 4628 1563 4150 794 
Q 3725 119 2772 -353 
L 2394 78 
Q 3334 494 3706 1094 
Q 4084 1703 4084 2725 
L 4084 4909 
z
" id="IPAexGothic-30ea" transform="scale(0.015625)"/>
      <path d="M 1344 3916 
L 5056 3916 
L 5056 3416 
L 1344 3416 
L 1344 3916 
z
M 659 1172 
L 5741 1172 
L 5741 666 
L 659 666 
L 659 1172 
z
" id="IPAexGothic-30cb" transform="scale(0.015625)"/>
      <path d="M 5388 4556 
L 5747 4200 
Q 5081 3022 4019 2191 
L 3647 2547 
Q 4519 3178 5081 4091 
L 850 4013 
L 850 4500 
L 5388 4556 
z
M 1216 256 
Q 2319 813 2616 1691 
Q 2797 2200 2797 3628 
L 3313 3628 
Q 3303 1981 3059 1356 
Q 2697 431 1594 -153 
L 1216 256 
z
" id="IPAexGothic-30a2" transform="scale(0.015625)"/>
     </defs>
     <use xlink:href="#IPAexGothic-30ea"/>
     <use x="100" xlink:href="#IPAexGothic-30cb"/>
     <use x="200" xlink:href="#IPAexGothic-30a2"/>
    </g>
   </g>
   <g id="text_10">
    <!-- でき -->
    <g style="fill:#8cfff6;" transform="translate(562.560282 263.328459)scale(0.1 -0.1)">
     <defs>
      <path d="M 581 4034 
Q 2978 4363 5466 4556 
L 5509 4097 
Q 4388 4031 3750 3572 
Q 2797 2878 2797 1913 
Q 2797 1169 3291 819 
Q 3778 484 4869 416 
L 4906 -116 
Q 2278 0 2278 1850 
Q 2278 3125 3691 4000 
Q 2066 3784 684 3553 
L 581 4034 
z
M 5631 2522 
Q 5269 3063 4875 3391 
L 5175 3622 
Q 5559 3313 5950 2797 
L 5631 2522 
z
M 5034 2053 
Q 4747 2544 4300 2944 
L 4613 3184 
Q 4984 2878 5369 2328 
L 5034 2053 
z
" id="IPAexGothic-3067" transform="scale(0.015625)"/>
     </defs>
     <use xlink:href="#IPAexGothic-3067"/>
     <use x="100" xlink:href="#IPAexGothic-304d"/>
    </g>
   </g>
   <g id="text_11">
    <!-- 重要 -->
    <g style="fill:#8cfff6;" transform="translate(546.302375 302.777363)scale(0.1 -0.1)">
     <defs>
      <path d="M 2950 3284 
L 2950 3684 
L 481 3684 
L 481 4063 
L 2950 4063 
L 2950 4491 
L 2747 4478 
Q 2100 4431 1241 4400 
L 1038 4791 
Q 3488 4878 4903 5113 
L 5234 4734 
Q 4388 4600 3406 4522 
L 3406 4063 
L 5913 4063 
L 5913 3684 
L 3406 3684 
L 3406 3284 
L 5269 3284 
L 5269 1313 
L 3406 1313 
L 3406 884 
L 5594 884 
L 5594 519 
L 3406 519 
L 3406 84 
L 6009 84 
L 6009 -294 
L 384 -294 
L 384 84 
L 2950 84 
L 2950 519 
L 800 519 
L 800 884 
L 2950 884 
L 2950 1313 
L 1128 1313 
L 1128 3284 
L 2950 3284 
z
M 2963 2931 
L 1569 2931 
L 1569 2472 
L 2963 2472 
L 2963 2931 
z
M 3394 2931 
L 3394 2472 
L 4825 2472 
L 4825 2931 
L 3394 2931 
z
M 2963 2147 
L 1569 2147 
L 1569 1659 
L 2963 1659 
L 2963 2147 
z
M 3394 2147 
L 3394 1659 
L 4825 1659 
L 4825 2147 
L 3394 2147 
z
" id="IPAexGothic-91cd" transform="scale(0.015625)"/>
     </defs>
     <use xlink:href="#IPAexGothic-91cd"/>
     <use x="100" xlink:href="#IPAexGothic-8981"/>
    </g>
   </g>
   <g id="text_12">
    <!-- な -->
    <g style="fill:#8cfff6;" transform="translate(554.665598 282.181106)scale(0.1 -0.1)">
     <defs>
      <path d="M 3906 3147 
L 4372 3147 
Q 4381 2278 4444 1272 
Q 5244 1003 5838 631 
L 5556 222 
Q 4953 600 4463 813 
Q 4478 263 4234 22 
Q 3984 -225 3419 -225 
Q 2897 -225 2563 0 
Q 2216 231 2216 647 
Q 2216 1081 2656 1319 
Q 2959 1484 3297 1484 
Q 3638 1484 3969 1413 
Q 3916 2219 3906 3147 
z
M 3975 984 
Q 3631 1081 3297 1081 
Q 3031 1081 2856 978 
Q 2663 863 2663 653 
Q 2663 197 3400 197 
Q 3750 197 3875 378 
Q 3997 556 3975 984 
z
M 738 3928 
Q 1453 3884 1997 3938 
Q 2144 4381 2294 5125 
L 2784 5050 
Q 2684 4559 2516 3988 
Q 2969 4031 3559 4172 
L 3578 3713 
Q 2919 3575 2375 3531 
Q 1853 2028 1044 831 
L 603 1113 
Q 1325 2063 1856 3488 
Q 1063 3459 763 3475 
L 738 3928 
z
M 5538 2759 
Q 5000 3353 4263 3853 
L 4591 4191 
Q 5338 3728 5897 3128 
L 5538 2759 
z
" id="IPAexGothic-306a" transform="scale(0.015625)"/>
     </defs>
     <use xlink:href="#IPAexGothic-306a"/>
    </g>
   </g>
   <g id="text_13">
    <!-- 耐え -->
    <g style="fill:#8cfff6;" transform="translate(567.190911 251.580732)scale(0.1 -0.1)">
     <defs>
      <path d="M 2066 3519 
L 3556 3519 
L 3556 -19 
Q 3556 -378 3153 -378 
Q 2953 -378 2784 -341 
L 2750 84 
Q 2931 25 3044 25 
Q 3153 25 3153 153 
L 3153 3141 
L 2694 3141 
L 2694 -191 
L 2297 -191 
L 2297 3141 
L 1869 3141 
L 1869 -191 
L 1478 -191 
L 1478 3141 
L 1047 3141 
L 1047 -447 
L 638 -447 
L 638 3519 
L 1625 3519 
Q 1753 3863 1863 4416 
L 325 4416 
L 325 4819 
L 3888 4819 
L 3888 4416 
L 2347 4416 
Q 2219 3884 2066 3519 
z
M 5113 3769 
L 5113 5184 
L 5541 5184 
L 5541 3769 
L 6116 3769 
L 6116 3366 
L 5566 3366 
L 5566 38 
Q 5566 -191 5484 -275 
Q 5378 -391 5050 -391 
Q 4697 -391 4344 -347 
L 4275 128 
Q 4650 50 4953 50 
Q 5138 50 5138 263 
L 5138 3366 
L 3713 3366 
L 3713 3769 
L 5113 3769 
z
M 4409 1141 
Q 4156 2088 3844 2700 
L 4228 2859 
Q 4588 2203 4825 1356 
L 4409 1141 
z
" id="IPAexGothic-8010" transform="scale(0.015625)"/>
      <path d="M 3797 4038 
Q 3144 4428 2013 4709 
L 2266 5106 
Q 3388 4838 4078 4469 
L 3797 4038 
z
M 1263 3347 
Q 2566 3428 3956 3641 
L 4291 3263 
Q 3759 2741 2875 1778 
Q 3156 1881 3356 1881 
Q 3909 1881 3919 1253 
L 3931 709 
Q 3941 456 4116 409 
Q 4244 372 4519 372 
Q 4944 372 5538 481 
L 5581 -31 
Q 5097 -103 4675 -103 
Q 4047 -103 3791 25 
Q 3484 178 3463 594 
L 3444 1094 
Q 3434 1491 3150 1491 
Q 2800 1491 2322 1072 
Q 1950 747 1109 -184 
L 738 166 
Q 2053 1434 3597 3181 
Q 2600 2988 1391 2841 
L 1263 3347 
z
" id="IPAexGothic-3048" transform="scale(0.015625)"/>
     </defs>
     <use xlink:href="#IPAexGothic-8010"/>
     <use x="100" xlink:href="#IPAexGothic-3048"/>
    </g>
   </g>
   <g id="text_14">
    <!-- 何人 -->
    <g style="fill:#8cfff6;" transform="translate(539.039588 359.199405)scale(0.1 -0.1)">
     <defs>
      <path d="M 5531 4250 
L 5531 153 
Q 5531 -150 5350 -263 
Q 5206 -359 4850 -359 
Q 4325 -359 3944 -313 
L 3872 191 
Q 4372 116 4788 116 
Q 5056 116 5056 403 
L 5056 4250 
L 2022 4250 
L 2022 4666 
L 6031 4666 
L 6031 4250 
L 5531 4250 
z
M 1641 3809 
L 1641 -447 
L 1172 -447 
L 1172 2847 
Q 881 2338 525 1863 
L 256 2253 
Q 1197 3481 1594 5184 
L 2069 5069 
Q 1866 4344 1641 3809 
z
M 4300 3378 
L 4300 1125 
L 2853 1125 
L 2853 625 
L 2425 625 
L 2425 3378 
L 4300 3378 
z
M 2853 2988 
L 2853 1516 
L 3872 1516 
L 3872 2988 
L 2853 2988 
z
" id="IPAexGothic-4f55" transform="scale(0.015625)"/>
      <path d="M 3434 5081 
L 3434 4659 
Q 3434 3131 4050 2069 
Q 4669 994 6022 275 
L 5644 -197 
Q 4359 588 3641 1863 
Q 3394 2300 3225 3009 
Q 2822 766 819 -325 
L 441 97 
Q 1856 759 2438 1972 
Q 2919 2959 2919 4634 
L 2919 5081 
L 3434 5081 
z
" id="IPAexGothic-4eba" transform="scale(0.015625)"/>
     </defs>
     <use xlink:href="#IPAexGothic-4f55"/>
     <use x="100" xlink:href="#IPAexGothic-4eba"/>
    </g>
   </g>
   <g id="text_15">
    <!-- 大き -->
    <g style="fill:#8cfff6;" transform="translate(526.055354 274.777521)scale(0.1 -0.1)">
     <defs>
      <path d="M 3528 3181 
Q 4150 1197 6003 275 
L 5647 -184 
Q 3891 831 3259 2681 
Q 2894 644 872 -344 
L 513 97 
Q 1678 528 2344 1538 
Q 2784 2219 2900 3181 
L 481 3181 
L 481 3628 
L 2925 3628 
L 2925 5150 
L 3431 5150 
L 3431 3628 
L 5922 3628 
L 5922 3181 
L 3528 3181 
z
" id="IPAexGothic-5927" transform="scale(0.015625)"/>
     </defs>
     <use xlink:href="#IPAexGothic-5927"/>
     <use x="100" xlink:href="#IPAexGothic-304d"/>
    </g>
   </g>
   <g id="text_16">
    <!-- 減ら -->
    <g style="fill:#8cfff6;" transform="translate(554.659024 245.628916)scale(0.1 -0.1)">
     <defs>
      <path d="M 4531 1175 
Q 4263 2144 4184 3794 
L 2419 3794 
L 2419 2566 
Q 2419 1391 2309 741 
Q 2194 59 1844 -481 
L 1491 -156 
Q 1991 622 1991 2419 
L 1991 4172 
L 4172 4172 
L 4153 4469 
Q 4150 4556 4141 4816 
Q 4131 5156 4128 5306 
L 4563 5306 
Q 4575 4588 4594 4206 
L 5938 4206 
L 5938 3822 
L 4613 3822 
Q 4697 2419 4831 1706 
Q 5131 2281 5381 3250 
L 5791 3078 
Q 5466 1978 4991 1144 
Q 5125 753 5306 459 
Q 5391 325 5441 325 
Q 5556 325 5703 1259 
L 6106 947 
Q 5844 -353 5534 -353 
Q 5397 -353 5203 -150 
Q 4922 163 4697 697 
Q 4181 19 3513 -475 
L 3188 -141 
Q 4000 384 4531 1175 
z
M 4038 2431 
L 4038 903 
L 3066 903 
L 3066 506 
L 2694 506 
L 2694 2431 
L 4038 2431 
z
M 3066 2088 
L 3066 1247 
L 3659 1247 
L 3659 2088 
L 3066 2088 
z
M 1472 3872 
Q 963 4463 556 4769 
L 856 5100 
Q 1372 4728 1784 4250 
L 1472 3872 
z
M 1209 2375 
Q 781 2897 294 3256 
L 581 3603 
Q 1109 3213 1516 2759 
L 1209 2375 
z
M 331 -103 
Q 838 763 1172 1931 
L 1547 1644 
Q 1188 422 722 -441 
L 331 -103 
z
M 2609 3272 
L 4081 3272 
L 4081 2900 
L 2609 2900 
L 2609 3272 
z
M 5413 4281 
Q 5128 4753 4881 5019 
L 5259 5209 
Q 5566 4884 5803 4513 
L 5413 4281 
z
" id="IPAexGothic-6e1b" transform="scale(0.015625)"/>
      <path d="M 3700 3928 
Q 2897 4478 2156 4750 
L 2381 5166 
Q 3147 4891 3956 4384 
L 3700 3928 
z
M 1344 1281 
Q 1450 2544 1747 4038 
L 2234 3928 
Q 1994 2856 1888 1844 
Q 2897 2688 3963 2688 
Q 4531 2688 4909 2450 
Q 5441 2122 5441 1516 
Q 5441 669 4569 213 
Q 3856 -169 2584 -238 
L 2363 250 
Q 3484 250 4213 588 
Q 4909 922 4909 1509 
Q 4909 1856 4647 2059 
Q 4366 2266 3897 2266 
Q 2853 2266 1766 1141 
L 1344 1281 
z
" id="IPAexGothic-3089" transform="scale(0.015625)"/>
     </defs>
     <use xlink:href="#IPAexGothic-6e1b"/>
     <use x="100" xlink:href="#IPAexGothic-3089"/>
    </g>
   </g>
   <g id="text_17">
    <!-- い -->
    <g style="fill:#8cfff6;" transform="translate(557.954425 241.125878)scale(0.1 -0.1)">
     <defs>
      <path d="M 3369 1447 
Q 2906 122 2278 122 
Q 1966 122 1647 481 
Q 1209 966 1044 1966 
Q 891 2888 891 4313 
L 1422 4313 
Q 1413 2444 1666 1550 
Q 1913 678 2278 678 
Q 2619 678 2925 1791 
L 3369 1447 
z
M 5378 1294 
Q 4928 2797 4034 3809 
L 4488 4031 
Q 5375 3000 5881 1563 
L 5378 1294 
z
" id="IPAexGothic-3044" transform="scale(0.015625)"/>
     </defs>
     <use xlink:href="#IPAexGothic-3044"/>
    </g>
   </g>
   <g id="text_18">
    <!-- 調整 -->
    <g style="fill:#8cfff6;" transform="translate(594.135505 338.848216)scale(0.1 -0.1)">
     <defs>
      <path d="M 5081 2247 
L 5081 775 
L 3806 775 
L 3806 428 
L 3422 428 
L 3422 2247 
L 5081 2247 
z
M 3806 1906 
L 3806 1116 
L 4697 1116 
L 4697 1906 
L 3806 1906 
z
M 2175 1684 
L 2175 -72 
L 894 -72 
L 894 -450 
L 484 -450 
L 484 1684 
L 2175 1684 
z
M 894 1313 
L 894 300 
L 1772 300 
L 1772 1313 
L 894 1313 
z
M 5875 4984 
L 5875 128 
Q 5875 -353 5397 -353 
Q 5084 -353 4672 -313 
L 4603 128 
Q 4966 69 5241 69 
Q 5453 69 5453 281 
L 5453 4600 
L 3078 4600 
L 3078 3025 
Q 3078 1475 3000 831 
Q 2913 59 2606 -513 
L 2241 -213 
Q 2528 366 2606 1203 
Q 2663 1778 2663 2803 
L 2663 4984 
L 5875 4984 
z
M 4044 3897 
L 4044 4428 
L 4441 4428 
L 4441 3897 
L 5150 3897 
L 5150 3544 
L 4441 3544 
L 4441 3009 
L 5266 3009 
L 5266 2663 
L 3269 2663 
L 3269 3009 
L 4044 3009 
L 4044 3544 
L 3378 3544 
L 3378 3897 
L 4044 3897 
z
M 569 5044 
L 2097 5044 
L 2097 4659 
L 569 4659 
L 569 5044 
z
M 313 4206 
L 2366 4206 
L 2366 3816 
L 313 3816 
L 313 4206 
z
M 569 3359 
L 2097 3359 
L 2097 2975 
L 569 2975 
L 569 3359 
z
M 569 2522 
L 2097 2522 
L 2097 2138 
L 569 2138 
L 569 2522 
z
" id="IPAexGothic-8abf" transform="scale(0.015625)"/>
      <path d="M 1694 2891 
Q 1297 2363 644 1997 
L 356 2328 
Q 1028 2625 1469 3097 
L 644 3097 
L 644 4191 
L 1694 4191 
L 1694 4497 
L 413 4497 
L 413 4838 
L 1694 4838 
L 1694 5313 
L 2109 5313 
L 2109 4838 
L 3372 4838 
L 3372 4497 
L 2109 4497 
L 2109 4191 
L 3181 4191 
L 3181 3097 
L 2109 3097 
L 2109 2963 
Q 2619 2838 3188 2559 
L 2913 2206 
Q 2616 2434 2109 2669 
L 2109 1972 
L 1694 1972 
L 1694 2891 
z
M 1706 3884 
L 1041 3884 
L 1041 3397 
L 1706 3397 
L 1706 3884 
z
M 2097 3884 
L 2097 3397 
L 2784 3397 
L 2784 3884 
L 2097 3884 
z
M 4453 3016 
Q 4150 3356 3909 3828 
Q 3791 3631 3591 3397 
L 3316 3719 
Q 3866 4425 4075 5363 
L 4509 5269 
Q 4422 4888 4313 4634 
L 5997 4634 
L 5997 4269 
L 5522 4269 
Q 5366 3559 4984 3034 
Q 5434 2663 6072 2419 
L 5797 2047 
Q 5184 2325 4728 2731 
Q 4266 2259 3525 1953 
L 3256 2297 
Q 3981 2534 4453 3016 
z
M 4691 3309 
Q 4978 3719 5106 4269 
L 4147 4269 
L 4116 4191 
Q 4316 3722 4691 3309 
z
M 3428 91 
L 6078 91 
L 6078 -288 
L 313 -288 
L 313 91 
L 1553 91 
L 1553 1088 
L 1994 1088 
L 1994 91 
L 2988 91 
L 2988 1413 
L 638 1413 
L 638 1784 
L 5759 1784 
L 5759 1413 
L 3428 1413 
L 3428 959 
L 5272 959 
L 5272 588 
L 3428 588 
L 3428 91 
z
" id="IPAexGothic-6574" transform="scale(0.015625)"/>
     </defs>
     <use xlink:href="#IPAexGothic-8abf"/>
     <use x="100" xlink:href="#IPAexGothic-6574"/>
    </g>
   </g>
   <g id="text_19">
    <!-- その -->
    <g style="fill:#8cfff6;" transform="translate(544.066471 360.362735)scale(0.1 -0.1)">
     <defs>
      <path d="M 1503 4575 
Q 2897 4641 4378 4813 
L 4641 4488 
Q 3566 3469 2738 2809 
Q 4478 3072 5516 3200 
L 5581 2741 
Q 4425 2644 3884 2394 
Q 2978 1972 2978 1131 
Q 2978 659 3506 450 
Q 3953 272 4819 269 
L 4838 -250 
Q 3725 -241 3200 44 
Q 2497 431 2497 1113 
Q 2497 1916 3403 2534 
Q 1234 2188 781 2106 
L 691 2559 
Q 809 2575 2072 2747 
Q 3203 3694 3872 4378 
Q 2759 4184 1606 4091 
L 1503 4575 
z
" id="IPAexGothic-305d" transform="scale(0.015625)"/>
      <path d="M 3119 469 
Q 5275 766 5275 2425 
Q 5275 3453 4413 3925 
Q 4041 4116 3547 4159 
Q 3394 2525 2850 1400 
Q 2322 306 1722 306 
Q 1384 306 1084 666 
Q 609 1244 609 2003 
Q 609 3025 1397 3794 
Q 2184 4563 3431 4563 
Q 4306 4563 4928 4122 
Q 5813 3506 5813 2425 
Q 5813 438 3431 6 
L 3119 469 
z
M 3053 4147 
Q 2378 4044 1891 3641 
Q 1097 2981 1097 1991 
Q 1097 1366 1434 978 
Q 1581 813 1719 813 
Q 2022 813 2416 1625 
Q 2909 2638 3053 4147 
z
" id="IPAexGothic-306e" transform="scale(0.015625)"/>
     </defs>
     <use xlink:href="#IPAexGothic-305d"/>
     <use x="100" xlink:href="#IPAexGothic-306e"/>
    </g>
   </g>
   <g id="text_20">
    <!-- 形 -->
    <g style="fill:#8cfff6;" transform="translate(562.059576 340.362928)scale(0.1 -0.1)">
     <defs>
      <path d="M 2856 4488 
L 2856 2859 
L 3744 2859 
L 3744 2456 
L 2875 2456 
L 2875 -384 
L 2434 -384 
L 2434 2456 
L 1653 2456 
L 1653 2394 
Q 1653 1425 1466 759 
Q 1266 59 756 -525 
L 425 -181 
Q 1213 666 1213 2341 
L 1213 2456 
L 322 2456 
L 322 2859 
L 1213 2859 
L 1213 4488 
L 481 4488 
L 481 4891 
L 3609 4891 
L 3609 4488 
L 2856 4488 
z
M 2416 4488 
L 1653 4488 
L 1653 2859 
L 2416 2859 
L 2416 4488 
z
M 3369 6 
Q 4859 738 5728 2203 
L 6144 1966 
Q 5216 403 3688 -384 
L 3369 6 
z
M 3334 3425 
Q 4566 4031 5197 5141 
L 5634 4909 
Q 4872 3697 3650 3066 
L 3334 3425 
z
M 3303 1728 
Q 4684 2331 5472 3706 
L 5888 3481 
Q 5025 2031 3609 1338 
L 3303 1728 
z
" id="IPAexGothic-5f62" transform="scale(0.015625)"/>
     </defs>
     <use xlink:href="#IPAexGothic-5f62"/>
    </g>
   </g>
   <g id="text_21">
    <!-- あ -->
    <g style="fill:#8cfff6;" transform="translate(479.873774 126.064175)scale(0.1 -0.1)">
     <defs>
      <path d="M 966 4134 
Q 1228 4116 1550 4116 
Q 1934 4116 2284 4141 
Q 2297 4247 2319 4453 
Q 2369 4872 2381 5050 
L 2853 5019 
Q 2794 4547 2759 4178 
Q 3672 4275 4581 4525 
L 4634 4084 
Q 3750 3863 2713 3756 
Q 2675 3378 2663 2931 
Q 3088 3084 3669 3138 
Q 3738 3325 3763 3547 
L 4238 3438 
Q 4188 3219 4153 3128 
Q 4797 3041 5166 2741 
Q 5703 2297 5703 1581 
Q 5703 794 5056 300 
Q 4559 -84 3681 -213 
L 3406 213 
Q 4169 297 4622 594 
Q 5203 969 5203 1588 
Q 5203 2216 4672 2553 
Q 4413 2725 4025 2772 
Q 3550 1556 2747 800 
Q 2766 584 2847 275 
L 2388 103 
Q 2369 191 2316 525 
Q 1756 128 1300 128 
Q 666 128 666 794 
Q 666 1244 950 1691 
Q 1216 2100 1678 2425 
Q 1834 2541 2194 2731 
Q 2206 3159 2253 3719 
Q 1772 3681 1338 3681 
Q 1106 3681 1006 3688 
L 966 4134 
z
M 2188 2291 
Q 1966 2169 1703 1913 
Q 1431 1650 1272 1353 
Q 1144 1109 1134 922 
Q 1119 575 1384 575 
Q 1788 575 2247 997 
Q 2197 1497 2188 2291 
z
M 3553 2772 
Q 3038 2700 2638 2534 
Q 2638 1734 2663 1300 
Q 3231 1931 3553 2772 
z
" id="IPAexGothic-3042" transform="scale(0.015625)"/>
     </defs>
     <use xlink:href="#IPAexGothic-3042"/>
    </g>
   </g>
   <g id="text_22">
    <!-- 運転 -->
    <g style="fill:#8cfff6;" transform="translate(608.727273 369.500947)scale(0.1 -0.1)">
     <defs>
      <path d="M 4122 4666 
L 4122 4219 
L 5269 4219 
L 5269 3888 
L 4122 3888 
L 4122 3463 
L 5459 3463 
L 5459 1616 
L 4122 1616 
L 4122 1172 
L 5953 1172 
L 5953 806 
L 4122 806 
L 4122 178 
L 3706 178 
L 3706 806 
L 1922 806 
L 1922 1172 
L 3706 1172 
L 3706 1616 
L 2409 1616 
L 2409 3463 
L 3706 3463 
L 3706 3888 
L 2606 3888 
L 2606 4219 
L 3706 4219 
L 3706 4666 
L 2453 4666 
L 2453 3863 
L 2025 3863 
L 2025 5025 
L 5856 5025 
L 5856 3863 
L 5428 3863 
L 5428 4666 
L 4122 4666 
z
M 3713 3138 
L 2825 3138 
L 2825 2694 
L 3713 2694 
L 3713 3138 
z
M 4116 3138 
L 4116 2694 
L 5044 2694 
L 5044 3138 
L 4116 3138 
z
M 3713 2381 
L 2825 2381 
L 2825 1941 
L 3713 1941 
L 3713 2381 
z
M 4116 2381 
L 4116 1941 
L 5044 1941 
L 5044 2381 
L 4116 2381 
z
M 1544 678 
Q 1766 400 2022 275 
Q 2447 75 3681 75 
Q 4625 75 6144 166 
Q 6031 -50 5984 -300 
Q 4881 -347 4013 -347 
Q 2491 -347 1991 -147 
Q 1634 -3 1397 319 
Q 1050 -91 584 -475 
L 328 -25 
Q 750 231 1116 556 
L 1116 2309 
L 328 2309 
L 328 2725 
L 1544 2725 
L 1544 678 
z
M 1344 3775 
Q 909 4353 469 4756 
L 788 5044 
Q 1272 4631 1697 4097 
L 1344 3775 
z
" id="IPAexGothic-904b" transform="scale(0.015625)"/>
      <path d="M 1509 3688 
L 1509 4153 
L 428 4153 
L 428 4538 
L 1509 4538 
L 1509 5313 
L 1925 5313 
L 1925 4538 
L 3050 4538 
L 3050 4153 
L 1925 4153 
L 1925 3688 
L 2909 3688 
L 2909 1516 
L 1925 1516 
L 1925 1013 
L 3131 1013 
L 3131 628 
L 1925 628 
L 1925 -447 
L 1509 -447 
L 1509 628 
L 313 628 
L 313 1013 
L 1509 1013 
L 1509 1516 
L 556 1516 
L 556 3688 
L 1509 3688 
z
M 1528 3356 
L 934 3356 
L 934 2778 
L 1528 2778 
L 1528 3356 
z
M 1913 3356 
L 1913 2778 
L 2525 2778 
L 2525 3356 
L 1913 3356 
z
M 1528 2453 
L 934 2453 
L 934 1856 
L 1528 1856 
L 1528 2453 
z
M 1913 2453 
L 1913 1856 
L 2525 1856 
L 2525 2453 
L 1913 2453 
z
M 4556 2497 
Q 4294 1175 4000 316 
Q 4806 409 5381 525 
Q 5147 1103 4875 1594 
L 5278 1747 
Q 5794 831 6150 -147 
L 5719 -403 
Q 5616 -100 5534 122 
L 5516 169 
Q 4422 -91 3134 -275 
L 2988 213 
Q 2991 213 3309 241 
Q 3463 253 3556 263 
Q 3909 1388 4069 2497 
L 3147 2497 
L 3147 2919 
L 6047 2919 
L 6047 2497 
L 4556 2497 
z
M 3403 4825 
L 5741 4825 
L 5741 4409 
L 3403 4409 
L 3403 4825 
z
" id="IPAexGothic-8ee2" transform="scale(0.015625)"/>
     </defs>
     <use xlink:href="#IPAexGothic-904b"/>
     <use x="100" xlink:href="#IPAexGothic-8ee2"/>
    </g>
   </g>
   <g id="text_23">
    <!-- くれ -->
    <g style="fill:#8cfff6;" transform="translate(556.309893 230.91454)scale(0.1 -0.1)">
     <defs>
      <path d="M 4022 -300 
Q 3050 984 1863 2047 
Q 1538 2338 1538 2522 
Q 1538 2700 1953 3041 
Q 3144 4019 3816 5094 
L 4256 4769 
Q 3456 3659 2234 2694 
Q 2106 2588 2106 2528 
Q 2106 2466 2344 2247 
Q 3591 1113 4444 103 
L 4022 -300 
z
" id="IPAexGothic-304f" transform="scale(0.015625)"/>
      <path d="M 538 3694 
Q 1275 3791 1800 3903 
L 1838 5006 
L 2316 5006 
L 2253 4006 
L 2619 3675 
Q 2428 3425 2247 3144 
Q 2241 3084 2241 2869 
Q 3341 4031 4134 4031 
Q 4856 4031 4856 3309 
Q 4856 3047 4794 2491 
Q 4719 1747 4719 1044 
Q 4719 672 4922 672 
Q 5084 672 5263 788 
Q 5613 1034 5850 1491 
L 6131 1025 
Q 5856 641 5600 447 
Q 5238 166 4866 166 
Q 4244 166 4244 1100 
Q 4244 1519 4350 2956 
Q 4369 3181 4369 3238 
Q 4369 3434 4297 3513 
Q 4231 3584 4081 3584 
Q 3438 3584 2228 2291 
Q 2222 1931 2222 1478 
Q 2222 753 2241 -159 
L 1747 -159 
Q 1747 1241 1753 1734 
Q 1544 1466 928 647 
L 531 991 
Q 1603 2291 1772 2478 
Q 1772 3038 1791 3469 
Q 1128 3284 653 3194 
L 538 3694 
z
" id="IPAexGothic-308c" transform="scale(0.015625)"/>
     </defs>
     <use xlink:href="#IPAexGothic-304f"/>
     <use x="100" xlink:href="#IPAexGothic-308c"/>
    </g>
   </g>
   <g id="text_24">
    <!-- 乗り物 -->
    <g style="fill:#8cfff6;" transform="translate(100.787712 1089.818182)scale(0.1 -0.1)">
     <defs>
      <path d="M 3756 1428 
Q 4803 575 6078 181 
L 5766 -263 
Q 4316 344 3403 1275 
L 3403 -447 
L 2950 -447 
L 2950 1244 
Q 2131 219 684 -384 
L 378 6 
Q 1688 438 2631 1428 
L 703 1428 
L 703 1806 
L 1581 1806 
L 1581 2516 
L 384 2516 
L 384 2900 
L 1581 2900 
L 1581 3584 
L 703 3584 
L 703 3956 
L 2950 3956 
L 2950 4500 
L 2688 4475 
Q 1822 4409 1081 4384 
L 884 4775 
Q 3334 4881 4800 5147 
L 5178 4763 
Q 4397 4638 3403 4538 
L 3403 3956 
L 5691 3956 
L 5691 3584 
L 4813 3584 
L 4813 2900 
L 6016 2900 
L 6016 2516 
L 4813 2516 
L 4813 1806 
L 5691 1806 
L 5691 1428 
L 3756 1428 
z
M 4372 3584 
L 3391 3584 
L 3391 2894 
L 4372 2894 
L 4372 3584 
z
M 2963 3584 
L 2022 3584 
L 2022 2894 
L 2963 2894 
L 2963 3584 
z
M 4372 2522 
L 3391 2522 
L 3391 1806 
L 4372 1806 
L 4372 2522 
z
M 2963 2522 
L 2022 2522 
L 2022 1806 
L 2963 1806 
L 2963 2522 
z
" id="IPAexGothic-4e57" transform="scale(0.015625)"/>
      <path d="M 2878 2925 
Q 2503 2294 2372 2041 
Q 2222 1750 2163 1459 
L 1716 1503 
Q 1509 2131 1509 3091 
Q 1509 3744 1663 4872 
L 2181 4806 
Q 2003 3541 2003 3016 
Q 2003 2613 2028 2259 
Q 2109 2413 2313 2766 
Q 2484 3063 2578 3238 
L 2878 2925 
z
M 2488 128 
Q 3534 503 3928 1184 
Q 4234 1713 4234 2975 
Q 4234 3872 4122 4928 
L 4666 4928 
Q 4759 3794 4759 2975 
Q 4759 1516 4356 844 
Q 3913 103 2853 -288 
L 2488 128 
z
" id="IPAexGothic-308a" transform="scale(0.015625)"/>
      <path d="M 4650 3763 
L 4178 3763 
L 4166 3697 
Q 3809 1916 2663 922 
L 2334 1228 
Q 3216 2034 3563 3084 
Q 3647 3328 3744 3763 
L 3300 3763 
Q 2991 3081 2634 2616 
L 2297 2919 
Q 3013 3872 3319 5319 
L 3775 5209 
Q 3631 4603 3469 4166 
L 5900 4166 
Q 5891 1056 5734 225 
Q 5628 -331 4959 -331 
Q 4553 -331 4166 -294 
L 4069 197 
Q 4594 122 4881 122 
Q 5172 122 5241 275 
Q 5422 669 5450 3438 
L 5459 3763 
L 5081 3763 
Q 4925 2650 4581 1797 
Q 4091 603 3066 -325 
L 2725 0 
Q 4281 1309 4638 3697 
L 4650 3763 
z
M 1025 3950 
L 1434 3950 
L 1434 5313 
L 1875 5313 
L 1875 3950 
L 2566 3950 
L 2566 3547 
L 1875 3547 
L 1875 2131 
Q 2359 2341 2572 2441 
L 2616 2031 
Q 2184 1809 1856 1672 
L 1856 -447 
L 1416 -447 
L 1416 1478 
Q 1028 1313 506 1122 
L 300 1563 
Q 903 1747 1434 1953 
L 1434 3547 
L 947 3547 
Q 831 2994 641 2556 
L 269 2803 
Q 600 3669 684 4744 
L 1125 4688 
Q 1066 4222 1025 3950 
z
" id="IPAexGothic-7269" transform="scale(0.015625)"/>
     </defs>
     <use xlink:href="#IPAexGothic-4e57"/>
     <use x="100" xlink:href="#IPAexGothic-308a"/>
     <use x="200" xlink:href="#IPAexGothic-7269"/>
    </g>
   </g>
   <g id="text_25">
    <!-- 考え -->
    <g style="fill:#8cfff6;" transform="translate(569.748378 262.824895)scale(0.1 -0.1)">
     <defs>
      <path d="M 3613 3378 
Q 4419 4028 5169 4922 
L 5566 4672 
Q 4963 3969 4316 3438 
L 6038 3438 
L 6038 3028 
L 3803 3028 
Q 3219 2597 2738 2291 
Q 2728 2247 2719 2188 
Q 4069 2347 4969 2622 
L 5341 2213 
Q 4141 1950 2641 1822 
L 2566 1491 
L 5372 1491 
Q 5269 372 5066 -69 
Q 4891 -447 4328 -447 
Q 3728 -447 3209 -403 
L 3100 97 
Q 3744 -6 4241 -6 
Q 4566 -6 4650 231 
Q 4756 519 4841 1100 
L 2463 1100 
Q 2384 834 2284 569 
L 1863 734 
Q 2091 1375 2225 1978 
Q 1334 1463 434 1075 
L 184 1484 
Q 1713 2050 3069 2975 
L 344 2975 
L 344 3378 
L 2713 3378 
L 2713 4116 
L 1125 4116 
L 1125 4513 
L 2750 4513 
L 2750 5313 
L 3203 5313 
L 3203 4513 
L 4350 4513 
L 4350 4116 
L 3166 4116 
L 3166 3378 
L 3613 3378 
z
" id="IPAexGothic-8003" transform="scale(0.015625)"/>
     </defs>
     <use xlink:href="#IPAexGothic-8003"/>
     <use x="100" xlink:href="#IPAexGothic-3048"/>
    </g>
   </g>
   <g id="text_26">
    <!-- モノ -->
    <g style="fill:#8cfff6;" transform="translate(558.608655 337.686975)scale(0.1 -0.1)">
     <defs>
      <path d="M 1216 4409 
L 5147 4409 
L 5147 3950 
L 3053 3950 
L 3053 2797 
L 5644 2797 
L 5644 2328 
L 3053 2328 
L 3053 972 
Q 3053 669 3272 600 
Q 3453 544 4013 544 
Q 4556 544 5269 600 
L 5269 97 
Q 4684 50 4147 50 
Q 3025 50 2753 250 
Q 2541 403 2541 825 
L 2541 2328 
L 744 2328 
L 744 2797 
L 2541 2797 
L 2541 3950 
L 1216 3950 
L 1216 4409 
z
" id="IPAexGothic-30e2" transform="scale(0.015625)"/>
      <path d="M 1159 500 
Q 3694 1525 4269 4591 
L 4828 4438 
Q 4106 1244 1550 78 
L 1159 500 
z
" id="IPAexGothic-30ce" transform="scale(0.015625)"/>
     </defs>
     <use xlink:href="#IPAexGothic-30e2"/>
     <use x="100" xlink:href="#IPAexGothic-30ce"/>
    </g>
   </g>
   <g id="text_27">
    <!-- 方 -->
    <g style="fill:#8cfff6;" transform="translate(548.84121 340.180232)scale(0.1 -0.1)">
     <defs>
      <path d="M 2931 3750 
L 2925 3616 
Q 2916 3203 2872 2778 
L 5244 2778 
Q 5175 781 5000 156 
Q 4913 -144 4691 -247 
Q 4528 -325 4194 -325 
Q 3759 -325 3256 -263 
L 3144 269 
Q 3700 156 4141 156 
Q 4491 156 4556 463 
Q 4725 1197 4744 2350 
L 2822 2350 
Q 2822 2313 2816 2288 
Q 2538 428 916 -484 
L 563 -94 
Q 1859 491 2247 1869 
Q 2422 2488 2450 3750 
L 409 3750 
L 409 4178 
L 2931 4178 
L 2931 5175 
L 3431 5175 
L 3431 4178 
L 5984 4178 
L 5984 3750 
L 2931 3750 
z
" id="IPAexGothic-65b9" transform="scale(0.015625)"/>
     </defs>
     <use xlink:href="#IPAexGothic-65b9"/>
    </g>
   </g>
   <g id="text_28">
    <!-- なん -->
    <g style="fill:#8cfff6;" transform="translate(482.110325 138.174079)scale(0.1 -0.1)">
     <defs>
      <path d="M 659 31 
Q 1684 2316 3066 4934 
L 3559 4703 
Q 2781 3375 2156 2100 
Q 2659 2572 3109 2572 
Q 3619 2572 3781 2059 
Q 3863 1803 3872 1147 
Q 3881 328 4313 328 
Q 4928 328 5466 1663 
L 5875 1288 
Q 5175 -178 4300 -178 
Q 3400 -178 3400 1069 
L 3400 1119 
Q 3400 2125 3003 2125 
Q 2153 2125 1128 -178 
L 659 31 
z
" id="IPAexGothic-3093" transform="scale(0.015625)"/>
     </defs>
     <use xlink:href="#IPAexGothic-306a"/>
     <use x="100" xlink:href="#IPAexGothic-3093"/>
    </g>
   </g>
   <g id="text_29">
    <!-- 集中 -->
    <g style="fill:#8cfff6;" transform="translate(576.588904 302.039098)scale(0.1 -0.1)">
     <defs>
      <path d="M 3000 4634 
Q 3197 5047 3275 5338 
L 3775 5216 
Q 3634 4922 3447 4634 
L 5625 4634 
L 5625 4269 
L 3416 4269 
L 3416 3884 
L 5291 3884 
L 5291 3553 
L 3416 3553 
L 3416 3175 
L 5291 3175 
L 5291 2844 
L 3416 2844 
L 3416 2431 
L 5759 2431 
L 5759 2066 
L 3403 2066 
L 3403 1659 
L 5981 1659 
L 5981 1281 
L 3741 1281 
Q 4628 538 6078 141 
L 5759 -275 
Q 4266 222 3403 1122 
L 3403 -447 
L 2950 -447 
L 2950 1091 
Q 2094 69 600 -409 
L 294 -25 
Q 1778 388 2644 1281 
L 416 1281 
L 416 1659 
L 2950 1659 
L 2950 2066 
L 1222 2066 
L 1222 3744 
Q 894 3322 600 3066 
L 306 3375 
Q 1209 4163 1625 5338 
L 2091 5244 
Q 1950 4909 1797 4634 
L 3000 4634 
z
M 1663 4269 
L 1663 3884 
L 3000 3884 
L 3000 4269 
L 1663 4269 
z
M 1663 3553 
L 1663 3175 
L 3000 3175 
L 3000 3553 
L 1663 3553 
z
M 1663 2844 
L 1663 2431 
L 3000 2431 
L 3000 2844 
L 1663 2844 
z
" id="IPAexGothic-96c6" transform="scale(0.015625)"/>
      <path d="M 2925 3950 
L 2925 5209 
L 3425 5209 
L 3425 3950 
L 5613 3950 
L 5613 1125 
L 5125 1125 
L 5125 1594 
L 3425 1594 
L 3425 -447 
L 2925 -447 
L 2925 1594 
L 1263 1594 
L 1263 1094 
L 775 1094 
L 775 3950 
L 2925 3950 
z
M 1263 3534 
L 1263 2009 
L 2925 2009 
L 2925 3534 
L 1263 3534 
z
M 5125 2009 
L 5125 3534 
L 3425 3534 
L 3425 2009 
L 5125 2009 
z
" id="IPAexGothic-4e2d" transform="scale(0.015625)"/>
     </defs>
     <use xlink:href="#IPAexGothic-96c6"/>
     <use x="100" xlink:href="#IPAexGothic-4e2d"/>
    </g>
   </g>
   <g id="text_30">
    <!-- 移動 -->
    <g style="fill:#8cfff6;" transform="translate(605.362495 334.501158)scale(0.1 -0.1)">
     <defs>
      <path d="M 4691 2419 
L 5844 2419 
L 6069 2188 
Q 5503 1156 4763 513 
Q 4081 -75 2975 -469 
L 2681 -97 
Q 3684 194 4384 728 
Q 4097 1056 3731 1356 
Q 3381 1053 2919 819 
L 2669 1150 
Q 3853 1772 4500 2878 
L 4909 2772 
Q 4772 2528 4691 2419 
z
M 4409 2034 
Q 4219 1803 4000 1588 
Q 4375 1341 4703 1009 
Q 5219 1488 5497 2034 
L 4409 2034 
z
M 1350 2328 
Q 1009 1334 513 659 
L 263 1081 
Q 966 2022 1266 3128 
L 366 3128 
L 366 3531 
L 1350 3531 
L 1350 4400 
Q 919 4322 575 4266 
L 366 4644 
Q 1506 4809 2378 5144 
L 2700 4747 
Q 2238 4600 1784 4491 
L 1784 3531 
L 2616 3531 
L 2616 3128 
L 1784 3128 
L 1784 2688 
Q 2306 2266 2719 1803 
L 2444 1356 
Q 2106 1838 1784 2181 
L 1784 -450 
L 1350 -450 
L 1350 2328 
z
M 4275 4800 
L 5491 4800 
L 5709 4609 
Q 4763 2809 2875 2047 
L 2606 2388 
Q 3534 2722 4134 3244 
Q 3869 3519 3450 3794 
Q 3184 3569 2859 3359 
L 2591 3666 
Q 3578 4259 4056 5288 
L 4481 5191 
Q 4406 5034 4275 4800 
z
M 4019 4416 
Q 3856 4194 3700 4038 
Q 4128 3759 4372 3553 
L 4416 3513 
Q 4884 3991 5119 4416 
L 4019 4416 
z
" id="IPAexGothic-79fb" transform="scale(0.015625)"/>
     </defs>
     <use xlink:href="#IPAexGothic-79fb"/>
     <use x="100" xlink:href="#IPAexGothic-52d5"/>
    </g>
   </g>
   <g id="text_31">
    <!-- 細か -->
    <g style="fill:#8cfff6;" transform="translate(535.808375 326.563088)scale(0.1 -0.1)">
     <defs>
      <path d="M 1306 3059 
Q 853 3697 431 4109 
L 738 4422 
L 956 4178 
Q 1366 4750 1609 5325 
L 2044 5113 
Q 1638 4422 1200 3878 
Q 1375 3666 1550 3413 
Q 1878 3894 2241 4563 
L 2638 4341 
Q 2056 3378 1384 2559 
L 1728 2578 
Q 2281 2616 2409 2631 
Q 2266 2972 2166 3150 
L 2503 3309 
Q 2828 2756 3034 2075 
L 2650 1881 
Q 2563 2203 2522 2316 
L 2434 2303 
Q 2241 2266 1884 2222 
L 1884 -447 
L 1463 -447 
L 1463 2175 
Q 1131 2128 456 2081 
L 322 2522 
Q 394 2525 556 2528 
Q 700 2531 775 2534 
L 931 2541 
Q 969 2594 1138 2825 
Q 1228 2947 1275 3009 
L 1306 3059 
z
M 5850 4844 
L 5850 -397 
L 5425 -397 
L 5425 25 
L 3600 25 
L 3600 -397 
L 3184 -397 
L 3184 4844 
L 5850 4844 
z
M 3600 4447 
L 3600 2681 
L 4297 2681 
L 4297 4447 
L 3600 4447 
z
M 3600 2297 
L 3600 422 
L 4297 422 
L 4297 2297 
L 3600 2297 
z
M 5425 422 
L 5425 2297 
L 4694 2297 
L 4694 422 
L 5425 422 
z
M 5425 2681 
L 5425 4447 
L 4694 4447 
L 4694 2681 
L 5425 2681 
z
M 403 219 
Q 634 822 713 1766 
L 1128 1709 
Q 1038 672 825 -19 
L 403 219 
z
M 2478 275 
Q 2347 1109 2119 1747 
L 2484 1856 
Q 2747 1266 2919 447 
L 2478 275 
z
" id="IPAexGothic-7d30" transform="scale(0.015625)"/>
      <path d="M 659 3384 
Q 1434 3503 2113 3581 
Q 2313 4341 2394 4972 
L 2900 4875 
Q 2759 4147 2619 3628 
L 2719 3634 
Q 2894 3641 3041 3641 
Q 4072 3641 4072 2369 
Q 4072 1128 3700 384 
Q 3478 -56 3003 -56 
Q 2591 -56 2113 231 
L 2138 775 
Q 2631 444 2925 444 
Q 3169 444 3297 706 
Q 3566 1294 3566 2388 
Q 3566 3219 3016 3219 
Q 2825 3219 2497 3194 
Q 2388 2763 2113 2047 
Q 1634 797 1119 -38 
L 678 244 
Q 1356 1238 1863 2750 
Q 1888 2819 1991 3128 
Q 1594 3081 769 2916 
L 659 3384 
z
M 5644 1753 
Q 5072 3025 4238 3916 
L 4641 4184 
Q 5494 3275 6081 2094 
L 5644 1753 
z
" id="IPAexGothic-304b" transform="scale(0.015625)"/>
     </defs>
     <use xlink:href="#IPAexGothic-7d30"/>
     <use x="100" xlink:href="#IPAexGothic-304b"/>
    </g>
   </g>
   <g id="text_32">
    <!-- 新し -->
    <g style="fill:#8cfff6;" transform="translate(525.425436 280.299609)scale(0.1 -0.1)">
     <defs>
      <path d="M 3891 2803 
Q 3881 1759 3794 1166 
Q 3653 197 3097 -563 
L 2741 -250 
Q 3450 700 3450 2631 
L 3450 4647 
Q 3516 4656 3622 4666 
Q 4656 4778 5447 5063 
L 5825 4678 
Q 4897 4419 3891 4294 
L 3891 3219 
L 6119 3219 
L 6119 2803 
L 5275 2803 
L 5275 -447 
L 4834 -447 
L 4834 2803 
L 3891 2803 
z
M 2822 4069 
Q 2678 3572 2519 3181 
L 3250 3181 
L 3250 2784 
L 2059 2784 
L 2059 2216 
L 3184 2216 
L 3184 1831 
L 2059 1831 
L 2059 1544 
Q 2613 1197 3031 847 
L 2781 456 
Q 2472 791 2059 1128 
L 2059 -447 
L 1644 -447 
L 1644 1294 
Q 1272 628 575 -31 
L 269 341 
Q 1041 938 1528 1831 
L 453 1831 
L 453 2216 
L 1644 2216 
L 1644 2784 
L 319 2784 
L 319 3181 
L 1125 3181 
Q 1013 3706 881 4069 
L 453 4069 
L 453 4453 
L 1631 4453 
L 1631 5309 
L 2072 5309 
L 2072 4453 
L 3166 4453 
L 3166 4069 
L 2822 4069 
z
M 2391 4069 
L 1325 4069 
Q 1450 3672 1534 3181 
L 2109 3181 
Q 2294 3659 2391 4069 
z
" id="IPAexGothic-65b0" transform="scale(0.015625)"/>
      <path d="M 1750 4884 
L 2281 4884 
L 2238 1319 
Q 2228 809 2391 569 
Q 2594 281 3128 281 
Q 3772 281 4344 744 
Q 4822 1131 5156 1759 
L 5534 1369 
Q 5094 653 4534 263 
Q 3878 -206 3134 -206 
Q 2341 -206 1994 213 
Q 1697 575 1706 1269 
L 1750 4884 
z
" id="IPAexGothic-3057" transform="scale(0.015625)"/>
     </defs>
     <use xlink:href="#IPAexGothic-65b0"/>
     <use x="100" xlink:href="#IPAexGothic-3057"/>
    </g>
   </g>
   <g id="text_33">
    <!-- く -->
    <g style="fill:#8cfff6;" transform="translate(487.586846 124.57239)scale(0.1 -0.1)">
     <use xlink:href="#IPAexGothic-304f"/>
    </g>
   </g>
   <g id="text_34">
    <!-- おっくう -->
    <g style="fill:#8cfff6;" transform="translate(424.018971 236.300249)scale(0.1 -0.1)">
     <defs>
      <path d="M 2113 4891 
L 2588 4891 
L 2588 3853 
Q 3216 3956 3675 4084 
L 3719 3634 
Q 3034 3469 2588 3419 
L 2588 2456 
Q 3184 2656 3803 2656 
Q 4438 2656 4866 2431 
Q 5494 2113 5494 1447 
Q 5494 28 3278 -97 
L 3053 366 
Q 3759 366 4259 550 
Q 4975 828 4975 1428 
Q 4975 2247 3766 2247 
Q 3191 2247 2588 2034 
L 2588 459 
Q 2588 141 2438 6 
Q 2313 -103 2056 -103 
Q 1547 -103 1128 231 
Q 763 519 763 856 
Q 763 1675 2113 2278 
L 2113 3359 
Q 1572 3297 959 3297 
L 959 3750 
L 1031 3750 
Q 1647 3750 2113 3794 
L 2113 4891 
z
M 2113 1838 
Q 1250 1444 1250 869 
Q 1250 716 1391 575 
Q 1616 350 1888 350 
Q 2113 350 2113 581 
L 2113 1838 
z
M 5422 3028 
Q 4844 3653 4084 4134 
L 4391 4475 
Q 5113 4047 5769 3413 
L 5422 3028 
z
" id="IPAexGothic-304a" transform="scale(0.015625)"/>
      <path d="M 1113 2656 
Q 2778 3103 3709 3103 
Q 4359 3103 4734 2778 
Q 5150 2409 5150 1803 
Q 5150 247 2456 25 
L 2231 494 
Q 3425 541 4028 878 
Q 4663 1231 4663 1806 
Q 4663 2681 3647 2681 
Q 2834 2681 1319 2203 
L 1113 2656 
z
" id="IPAexGothic-3063" transform="scale(0.015625)"/>
      <path d="M 3897 4025 
Q 3203 4456 2144 4728 
L 2381 5166 
Q 3353 4928 4166 4481 
L 3897 4025 
z
M 1172 3050 
Q 2872 3628 3566 3628 
Q 4269 3628 4603 3181 
Q 4847 2850 4847 2253 
Q 4847 372 2619 -275 
L 2278 159 
Q 3356 397 3881 994 
Q 4328 1503 4328 2228 
Q 4328 3181 3534 3181 
Q 2909 3181 1397 2553 
L 1172 3050 
z
" id="IPAexGothic-3046" transform="scale(0.015625)"/>
     </defs>
     <use xlink:href="#IPAexGothic-304a"/>
     <use x="100" xlink:href="#IPAexGothic-3063"/>
     <use x="200" xlink:href="#IPAexGothic-304f"/>
     <use x="300" xlink:href="#IPAexGothic-3046"/>
    </g>
   </g>
   <g id="text_35">
    <!-- 運 -->
    <g style="fill:#8cfff6;" transform="translate(549.331977 367.713835)scale(0.1 -0.1)">
     <use xlink:href="#IPAexGothic-904b"/>
    </g>
   </g>
   <g id="text_36">
    <!-- 旅 -->
    <g style="fill:#8cfff6;" transform="translate(567.441378 417.505668)scale(0.1 -0.1)">
     <defs>
      <path d="M 1550 3866 
L 1550 3084 
L 1550 2963 
L 2634 2963 
Q 2603 656 2459 -6 
Q 2375 -403 1916 -403 
Q 1641 -403 1375 -372 
L 1303 84 
Q 1591 25 1816 25 
Q 2031 25 2069 306 
Q 2178 1141 2197 2572 
L 1534 2572 
L 1528 2475 
Q 1422 656 556 -506 
L 250 -147 
Q 1128 1028 1128 3091 
L 1128 3866 
L 378 3866 
L 378 4269 
L 1375 4269 
L 1375 5313 
L 1816 5313 
L 1816 4269 
L 2984 4269 
L 2984 3866 
L 1550 3866 
z
M 4191 2606 
L 4094 2566 
L 3997 2528 
L 3891 2491 
L 3891 -447 
L 3450 -447 
L 3450 2338 
Q 3181 2250 2913 2181 
L 2700 2547 
Q 4169 2906 5334 3647 
L 5694 3347 
Q 5109 3003 4544 2753 
Q 4622 2269 4819 1772 
Q 5219 2156 5528 2625 
L 5925 2356 
Q 5484 1844 4978 1422 
Q 5397 641 6122 122 
L 5766 -300 
Q 4491 859 4191 2606 
z
M 3725 4359 
L 5978 4359 
L 5978 3956 
L 3544 3956 
Q 3241 3350 2897 2931 
L 2584 3247 
Q 3269 4081 3584 5344 
L 4025 5228 
Q 3856 4675 3725 4359 
z
" id="IPAexGothic-65c5" transform="scale(0.015625)"/>
     </defs>
     <use xlink:href="#IPAexGothic-65c5"/>
    </g>
   </g>
   <g id="text_37">
    <!-- もの -->
    <g style="fill:#8cfff6;" transform="translate(560.378432 324.231112)scale(0.1 -0.1)">
     <defs>
      <path d="M 997 3950 
Q 1622 3844 2303 3816 
L 2491 5056 
L 2988 4984 
Q 2872 4363 2797 3816 
Q 3475 3822 4244 3938 
L 4244 3494 
Q 3659 3394 2731 3372 
Q 2700 3131 2603 2381 
Q 3263 2381 4031 2509 
L 4031 2059 
Q 3359 1947 2534 1947 
Q 2472 1447 2472 1216 
Q 2472 191 3609 191 
Q 4831 191 4831 1163 
Q 4831 1597 4500 2131 
L 5003 2181 
Q 5338 1638 5338 1153 
Q 5338 472 4819 75 
Q 4372 -256 3609 -256 
Q 2003 -256 2003 1153 
Q 2003 1556 2059 1959 
Q 1372 2022 1013 2094 
L 1056 2541 
Q 1581 2431 2125 2400 
L 2247 3378 
Q 1550 3406 941 3519 
L 997 3950 
z
" id="IPAexGothic-3082" transform="scale(0.015625)"/>
     </defs>
     <use xlink:href="#IPAexGothic-3082"/>
     <use x="100" xlink:href="#IPAexGothic-306e"/>
    </g>
   </g>
   <g id="text_38">
    <!-- 浪費 -->
    <g style="fill:#8cfff6;" transform="translate(605.702564 292.480555)scale(0.1 -0.1)">
     <defs>
      <path d="M 3978 2094 
Q 4128 1619 4453 1184 
Q 4916 1509 5413 2056 
L 5797 1747 
Q 5294 1294 4697 891 
Q 5131 425 5963 34 
L 5591 -372 
Q 4459 297 3953 1141 
Q 3706 1550 3553 2094 
L 2838 2094 
L 2838 225 
Q 3397 309 4209 531 
L 4234 141 
Q 3125 -194 1866 -391 
L 1706 59 
Q 1884 78 2384 147 
L 2384 4569 
L 3597 4569 
L 3597 5313 
L 4050 5313 
L 4050 4569 
L 5316 4569 
L 5316 2094 
L 3978 2094 
z
M 4875 2472 
L 4875 3175 
L 2838 3175 
L 2838 2472 
L 4875 2472 
z
M 4875 3541 
L 4875 4184 
L 2838 4184 
L 2838 3541 
L 4875 3541 
z
M 1606 3853 
Q 1181 4334 691 4716 
L 997 5063 
Q 1475 4741 1925 4244 
L 1606 3853 
z
M 1381 2375 
Q 931 2909 434 3231 
L 747 3603 
Q 1297 3231 1719 2753 
L 1381 2375 
z
M 331 38 
Q 953 794 1472 1931 
L 1803 1575 
Q 1259 378 684 -372 
L 331 38 
z
" id="IPAexGothic-6d6a" transform="scale(0.015625)"/>
      <path d="M 1247 2356 
Q 969 2253 638 2163 
L 391 2503 
Q 1531 2744 1984 3213 
L 709 3213 
Q 859 3603 953 4172 
L 2291 4172 
L 2291 4519 
L 538 4519 
L 538 4844 
L 2291 4844 
L 2291 5325 
L 2719 5325 
L 2719 4844 
L 3666 4844 
L 3666 5325 
L 4097 5325 
L 4097 4844 
L 5422 4844 
L 5422 3859 
L 4097 3859 
L 4097 3525 
L 5941 3525 
Q 5931 3028 5856 2766 
Q 5791 2509 5447 2509 
Q 5363 2509 5178 2528 
L 5178 506 
L 1247 506 
L 1247 2356 
z
M 2072 2784 
L 3666 2784 
L 3666 3213 
L 2475 3213 
Q 2334 2978 2072 2784 
z
M 4097 2784 
L 4981 2784 
L 4947 2931 
Q 5138 2884 5313 2884 
Q 5478 2884 5519 3213 
L 4097 3213 
L 4097 2784 
z
M 4744 2459 
L 1688 2459 
L 1688 2144 
L 4744 2144 
L 4744 2459 
z
M 2719 4172 
L 3666 4172 
L 3666 4519 
L 2719 4519 
L 2719 4172 
z
M 2622 3525 
L 3666 3525 
L 3666 3859 
L 2700 3859 
Q 2681 3684 2622 3525 
z
M 2188 3525 
Q 2259 3700 2278 3859 
L 1325 3859 
Q 1297 3703 1247 3525 
L 2188 3525 
z
M 5006 4519 
L 4097 4519 
L 4097 4172 
L 5006 4172 
L 5006 4519 
z
M 1688 1838 
L 1688 1497 
L 4744 1497 
L 4744 1838 
L 1688 1838 
z
M 1688 1197 
L 1688 838 
L 4744 838 
L 4744 1197 
L 1688 1197 
z
M 500 -141 
Q 1594 78 2303 488 
L 2681 197 
Q 1756 -309 806 -525 
L 500 -141 
z
M 5556 -494 
Q 4550 -66 3622 184 
L 3950 481 
Q 4759 300 5913 -128 
L 5556 -494 
z
" id="IPAexGothic-8cbb" transform="scale(0.015625)"/>
     </defs>
     <use xlink:href="#IPAexGothic-6d6a"/>
     <use x="100" xlink:href="#IPAexGothic-8cbb"/>
    </g>
   </g>
   <g id="text_39">
    <!-- 身体 -->
    <g style="fill:#8cfff6;" transform="translate(534.873679 508.220969)scale(0.1 -0.1)">
     <defs>
      <path d="M 4456 1503 
Q 3147 375 941 -403 
L 641 6 
Q 2784 628 4013 1644 
Q 2666 1425 666 1284 
L 531 1741 
L 953 1759 
L 1063 1766 
L 1441 1791 
L 1441 4691 
L 2559 4691 
Q 2709 5038 2784 5356 
L 3322 5278 
Q 3188 4969 3034 4691 
L 4878 4691 
L 4878 2481 
Q 5256 2928 5600 3488 
L 6003 3213 
Q 5528 2522 4903 1913 
L 4903 72 
Q 4903 -244 4744 -356 
Q 4619 -453 4309 -453 
Q 3859 -453 3366 -409 
L 3263 78 
Q 3850 0 4244 0 
Q 4456 0 4456 206 
L 4456 1503 
z
M 4425 2022 
L 4425 2469 
L 1881 2469 
L 1881 1816 
L 2106 1828 
Q 3641 1925 4425 2022 
z
M 4425 2853 
L 4425 3384 
L 1881 3384 
L 1881 2853 
L 4425 2853 
z
M 4425 3769 
L 4425 4300 
L 1881 4300 
L 1881 3769 
L 4425 3769 
z
" id="IPAexGothic-8eab" transform="scale(0.015625)"/>
      <path d="M 4253 3481 
Q 4869 2069 6041 1138 
L 5688 703 
Q 4541 1841 4069 3122 
L 4069 1228 
L 4925 1228 
L 4925 831 
L 4081 831 
L 4081 -450 
L 3613 -450 
L 3613 831 
L 2781 831 
L 2781 1228 
L 3628 1228 
L 3628 3097 
Q 3216 1703 2063 556 
L 1706 928 
Q 2844 1875 3441 3481 
L 1969 3481 
L 1969 3897 
L 3613 3897 
L 3613 5209 
L 4081 5209 
L 4081 3897 
L 5872 3897 
L 5872 3481 
L 4253 3481 
z
M 1572 3700 
L 1572 -441 
L 1119 -441 
L 1119 2778 
Q 888 2363 550 1913 
L 300 2303 
Q 1219 3575 1591 5241 
L 2041 5125 
Q 1844 4356 1572 3700 
z
" id="IPAexGothic-4f53" transform="scale(0.015625)"/>
     </defs>
     <use xlink:href="#IPAexGothic-8eab"/>
     <use x="100" xlink:href="#IPAexGothic-4f53"/>
    </g>
   </g>
   <g id="text_40">
    <!-- スピード -->
    <g style="fill:#8cfff6;" transform="translate(39.272727 884.349896)scale(0.1 -0.1)">
     <defs>
      <path d="M 4359 4481 
L 4716 4147 
Q 4328 3072 3647 2150 
Q 4659 1434 5659 453 
L 5234 19 
Q 4256 1088 3353 1778 
Q 2372 597 1044 -31 
L 653 403 
Q 3128 1453 4097 4000 
L 1241 3963 
L 1228 4453 
L 4359 4481 
z
" id="IPAexGothic-30b9" transform="scale(0.015625)"/>
      <path d="M 1331 4756 
L 1856 4756 
L 1856 2759 
Q 3528 3134 4722 3872 
L 5106 3456 
Q 3619 2663 1856 2278 
L 1856 1044 
Q 1856 725 2047 650 
Q 2241 566 3138 566 
Q 4141 566 5369 697 
L 5369 184 
Q 4231 78 3238 78 
Q 1913 78 1619 275 
Q 1331 459 1331 947 
L 1331 4756 
z
M 5478 5222 
Q 5788 5222 5997 4988 
Q 6181 4788 6181 4519 
Q 6181 4206 5947 3994 
Q 5747 3809 5478 3809 
Q 5166 3809 4953 4044 
Q 4769 4247 4769 4519 
Q 4769 4828 5003 5041 
Q 5206 5222 5478 5222 
z
M 5478 4941 
Q 5288 4941 5159 4800 
Q 5050 4678 5050 4519 
Q 5050 4328 5191 4200 
Q 5313 4091 5478 4091 
Q 5663 4091 5791 4231 
Q 5900 4353 5900 4519 
Q 5900 4703 5759 4831 
Q 5638 4941 5478 4941 
z
" id="IPAexGothic-30d4" transform="scale(0.015625)"/>
      <path d="M 588 2688 
L 5809 2688 
L 5809 2175 
L 588 2175 
L 588 2688 
z
" id="IPAexGothic-30fc" transform="scale(0.015625)"/>
      <path d="M 2247 4959 
L 2766 4959 
L 2766 3169 
Q 4050 2581 5178 1850 
L 4841 1331 
Q 3781 2138 2766 2650 
L 2766 -225 
L 2247 -225 
L 2247 4959 
z
M 5263 3847 
Q 4900 4388 4506 4716 
L 4806 4947 
Q 5191 4638 5581 4122 
L 5263 3847 
z
M 4666 3378 
Q 4375 3869 3931 4269 
L 4244 4513 
Q 4616 4206 5000 3653 
L 4666 3378 
z
" id="IPAexGothic-30c9" transform="scale(0.015625)"/>
     </defs>
     <use xlink:href="#IPAexGothic-30b9"/>
     <use x="100" xlink:href="#IPAexGothic-30d4"/>
     <use x="200" xlink:href="#IPAexGothic-30fc"/>
     <use x="300" xlink:href="#IPAexGothic-30c9"/>
    </g>
   </g>
   <g id="text_41">
    <!-- 人 -->
    <g style="fill:#8cfff6;" transform="translate(554.938314 426.286353)scale(0.1 -0.1)">
     <use xlink:href="#IPAexGothic-4eba"/>
    </g>
   </g>
   <g id="text_42">
    <!-- 中 -->
    <g style="fill:#8cfff6;" transform="translate(544.516725 361.187888)scale(0.1 -0.1)">
     <use xlink:href="#IPAexGothic-4e2d"/>
    </g>
   </g>
   <g id="text_43">
    <!-- 速 -->
    <g style="fill:#8cfff6;" transform="translate(551.794887 329.85129)scale(0.1 -0.1)">
     <defs>
      <path d="M 3766 1809 
Q 3256 1066 2481 569 
L 2175 913 
Q 3125 1413 3644 2206 
L 2406 2206 
L 2406 3641 
L 3766 3641 
L 3766 4172 
L 2047 4172 
L 2047 4569 
L 3766 4569 
L 3766 5313 
L 4194 5313 
L 4194 4569 
L 5913 4569 
L 5913 4172 
L 4194 4172 
L 4194 3641 
L 5553 3641 
L 5553 2206 
L 4194 2206 
L 4194 2034 
L 4250 2009 
Q 4988 1653 5803 1125 
L 5497 753 
Q 4834 1244 4194 1638 
L 4194 350 
L 3766 350 
L 3766 1809 
z
M 3766 3269 
L 2822 3269 
L 2822 2578 
L 3766 2578 
L 3766 3269 
z
M 4194 3269 
L 4194 2578 
L 5138 2578 
L 5138 3269 
L 4194 3269 
z
M 1831 781 
Q 2084 456 2450 319 
Q 2903 147 4134 147 
Q 5069 147 6119 222 
Q 6000 9 5944 -263 
Q 5025 -294 4428 -294 
Q 2800 -294 2272 -63 
Q 1869 119 1600 491 
Q 1131 -53 666 -444 
L 372 44 
Q 881 344 1378 775 
L 1378 2303 
L 397 2303 
L 397 2731 
L 1831 2731 
L 1831 781 
z
M 1619 3622 
Q 1206 4169 619 4697 
L 959 4991 
Q 1488 4581 1972 3975 
L 1619 3622 
z
" id="IPAexGothic-901f" transform="scale(0.015625)"/>
     </defs>
     <use xlink:href="#IPAexGothic-901f"/>
    </g>
   </g>
   <g id="text_44">
    <!-- 色々 -->
    <g style="fill:#8cfff6;" transform="translate(543.149933 345.026373)scale(0.1 -0.1)">
     <defs>
      <path d="M 1672 1691 
L 1672 572 
Q 1672 309 1863 244 
Q 2056 178 3309 178 
Q 4959 178 5244 250 
Q 5444 306 5491 544 
Q 5534 788 5544 1147 
L 6016 988 
Q 5950 56 5703 -97 
Q 5447 -256 3413 -256 
Q 1725 -256 1466 -128 
Q 1231 -6 1231 372 
L 1231 3144 
Q 953 2866 622 2600 
L 328 2953 
Q 1509 3825 2131 5275 
L 2581 5172 
Q 2528 5056 2388 4756 
L 4150 4756 
L 4425 4544 
Q 3997 3894 3694 3541 
L 5422 3541 
L 5422 1391 
L 4981 1391 
L 4981 1691 
L 1672 1691 
z
M 1672 2088 
L 3075 2088 
L 3075 3150 
L 1672 3150 
L 1672 2088 
z
M 3503 3150 
L 3503 2088 
L 4981 2088 
L 4981 3150 
L 3503 3150 
z
M 3209 3541 
Q 3553 3938 3809 4372 
L 2178 4372 
Q 1925 3950 1588 3541 
L 3209 3541 
z
" id="IPAexGothic-8272" transform="scale(0.015625)"/>
      <path d="M 4897 3456 
L 5141 3194 
Q 4563 2119 3744 1241 
Q 4194 831 4366 659 
L 4019 300 
Q 3278 1138 2419 1728 
L 2728 2056 
Q 2766 2025 3025 1828 
Q 3175 1713 3272 1638 
L 3413 1531 
Q 4078 2234 4519 3047 
L 2584 3047 
Q 2059 2078 1300 1434 
L 922 1722 
Q 2131 2684 2644 4391 
L 3116 4300 
Q 2997 3909 2797 3456 
L 4897 3456 
z
" id="IPAexGothic-3005" transform="scale(0.015625)"/>
     </defs>
     <use xlink:href="#IPAexGothic-8272"/>
     <use x="100" xlink:href="#IPAexGothic-3005"/>
    </g>
   </g>
   <g id="text_45">
    <!-- 重力 -->
    <g style="fill:#8cfff6;" transform="translate(555.799766 533.532738)scale(0.1 -0.1)">
     <defs>
      <path d="M 3303 3944 
L 5653 3944 
Q 5622 1247 5428 356 
Q 5303 -231 4647 -231 
Q 4159 -231 3456 -147 
L 3381 416 
Q 4022 263 4456 263 
Q 4881 263 4947 616 
Q 5106 1509 5134 3303 
L 5141 3509 
L 3291 3509 
Q 3234 2200 2741 1281 
Q 2194 297 878 -416 
L 525 -6 
Q 2709 963 2778 3450 
L 641 3450 
L 641 3891 
L 2784 3891 
L 2784 5147 
L 3303 5147 
L 3303 3944 
z
" id="IPAexGothic-529b" transform="scale(0.015625)"/>
     </defs>
     <use xlink:href="#IPAexGothic-91cd"/>
     <use x="100" xlink:href="#IPAexGothic-529b"/>
    </g>
   </g>
   <g id="text_46">
    <!-- きっかけ -->
    <g style="fill:#8cfff6;" transform="translate(465.325171 243.939109)scale(0.1 -0.1)">
     <defs>
      <path d="M 2553 3481 
Q 2891 3463 3219 3463 
Q 3691 3463 4338 3506 
Q 4303 4434 4250 4897 
L 4763 4897 
Q 4769 4772 4825 3566 
Q 5319 3634 5709 3744 
L 5747 3291 
Q 5356 3159 4838 3109 
Q 4844 2875 4844 2606 
Q 4844 1434 4575 856 
Q 4250 138 3347 -313 
L 2938 56 
Q 3809 441 4094 1006 
Q 4363 1525 4363 2625 
Q 4363 2853 4359 3059 
Q 3722 3009 3175 3009 
Q 2791 3009 2591 3022 
L 2553 3481 
z
M 1925 2088 
L 2253 1881 
Q 1697 872 1678 166 
L 1259 72 
Q 941 1184 941 2272 
Q 941 3181 1344 4872 
L 1819 4750 
Q 1416 3166 1416 2163 
Q 1416 1722 1491 1222 
L 1925 2088 
z
" id="IPAexGothic-3051" transform="scale(0.015625)"/>
     </defs>
     <use xlink:href="#IPAexGothic-304d"/>
     <use x="100" xlink:href="#IPAexGothic-3063"/>
     <use x="200" xlink:href="#IPAexGothic-304b"/>
     <use x="300" xlink:href="#IPAexGothic-3051"/>
    </g>
   </g>
   <g id="text_47">
    <!-- こと -->
    <g style="fill:#8cfff6;" transform="translate(561.53298 308.83059)scale(0.1 -0.1)">
     <defs>
      <path d="M 1647 4422 
Q 2400 4363 3003 4363 
Q 3803 4363 4653 4459 
L 4763 4031 
Q 4319 3906 3788 3588 
Q 3347 3322 2978 2994 
L 2619 3272 
Q 3150 3666 3609 3950 
Q 3097 3909 2619 3909 
Q 2091 3909 1666 3956 
L 1647 4422 
z
M 5244 191 
Q 4363 13 3303 13 
Q 2316 13 1716 344 
Q 1159 653 1159 1197 
Q 1159 1738 1659 2247 
L 2044 2003 
Q 1647 1644 1647 1263 
Q 1647 500 3291 500 
Q 4288 500 5191 722 
L 5244 191 
z
" id="IPAexGothic-3053" transform="scale(0.015625)"/>
      <path d="M 5222 56 
Q 4200 -72 3450 -72 
Q 2478 -72 1941 113 
Q 1184 372 1184 1038 
Q 1184 1584 1594 2009 
Q 1941 2369 2656 2725 
Q 2231 3734 1972 4878 
L 2491 4978 
Q 2706 3884 3078 2950 
Q 4250 3447 4756 3616 
L 4978 3150 
Q 3181 2575 2409 2078 
Q 1691 1613 1691 1113 
Q 1691 403 3322 403 
Q 4125 403 5134 563 
L 5222 56 
z
" id="IPAexGothic-3068" transform="scale(0.015625)"/>
     </defs>
     <use xlink:href="#IPAexGothic-3053"/>
     <use x="100" xlink:href="#IPAexGothic-3068"/>
    </g>
   </g>
   <g id="text_48">
    <!-- 思 -->
    <g style="fill:#8cfff6;" transform="translate(595.25533 62.181818)scale(0.1 -0.1)">
     <defs>
      <path d="M 5356 4984 
L 5356 2291 
L 1038 2291 
L 1038 4984 
L 5356 4984 
z
M 1484 4600 
L 1484 3859 
L 2963 3859 
L 2963 4600 
L 1484 4600 
z
M 1484 3488 
L 1484 2675 
L 2963 2675 
L 2963 3488 
L 1484 3488 
z
M 4903 2675 
L 4903 3488 
L 3391 3488 
L 3391 2675 
L 4903 2675 
z
M 4903 3859 
L 4903 4600 
L 3391 4600 
L 3391 3859 
L 4903 3859 
z
M 403 97 
Q 916 813 1125 1672 
L 1594 1538 
Q 1316 491 806 -231 
L 403 97 
z
M 2009 1806 
L 2491 1806 
L 2491 416 
Q 2491 194 2613 166 
Q 2747 122 3334 122 
Q 4175 122 4263 306 
Q 4316 422 4347 966 
L 4813 825 
Q 4766 84 4616 -94 
Q 4494 -238 4200 -275 
Q 3863 -313 3181 -313 
Q 2381 -313 2197 -203 
Q 2009 -97 2009 238 
L 2009 1806 
z
M 3566 838 
Q 3231 1475 2778 1959 
L 3163 2188 
Q 3531 1809 3981 1100 
L 3566 838 
z
M 5663 6 
Q 5178 916 4575 1613 
L 4959 1863 
Q 5638 1119 6094 331 
L 5663 6 
z
" id="IPAexGothic-601d" transform="scale(0.015625)"/>
     </defs>
     <use xlink:href="#IPAexGothic-601d"/>
    </g>
   </g>
   <g id="text_49">
    <!-- 車 -->
    <g style="fill:#8cfff6;" transform="translate(577.49224 514.503819)scale(0.1 -0.1)">
     <defs>
      <path d="M 2950 3694 
L 2950 4153 
L 606 4153 
L 606 4550 
L 2950 4550 
L 2950 5313 
L 3403 5313 
L 3403 4550 
L 5784 4550 
L 5784 4153 
L 3403 4153 
L 3403 3694 
L 5325 3694 
L 5325 1522 
L 3403 1522 
L 3403 1019 
L 5978 1019 
L 5978 622 
L 3403 622 
L 3403 -447 
L 2950 -447 
L 2950 622 
L 416 622 
L 416 1019 
L 2950 1019 
L 2950 1522 
L 1069 1522 
L 1069 3694 
L 2950 3694 
z
M 2963 3309 
L 1509 3309 
L 1509 2803 
L 2963 2803 
L 2963 3309 
z
M 3391 3309 
L 3391 2803 
L 4884 2803 
L 4884 3309 
L 3391 3309 
z
M 2963 2444 
L 1509 2444 
L 1509 1906 
L 2963 1906 
L 2963 2444 
z
M 3391 2444 
L 3391 1906 
L 4884 1906 
L 4884 2444 
L 3391 2444 
z
" id="IPAexGothic-8eca" transform="scale(0.015625)"/>
     </defs>
     <use xlink:href="#IPAexGothic-8eca"/>
    </g>
   </g>
   <g id="text_50">
    <!-- 毎日 -->
    <g style="fill:#8cfff6;" transform="translate(534.524809 383.762995)scale(0.1 -0.1)">
     <defs>
      <path d="M 1528 3675 
L 5169 3675 
Q 5169 3553 5131 2322 
L 6078 2322 
L 6078 1925 
L 5119 1925 
Q 5075 1194 5056 994 
L 5047 897 
L 5938 897 
L 5938 513 
L 5003 513 
Q 4947 -3 4838 -172 
Q 4684 -409 4263 -409 
Q 3797 -409 3397 -353 
L 3322 122 
Q 3928 31 4191 31 
Q 4416 31 4484 197 
Q 4506 250 4550 513 
L 1541 513 
Q 1531 475 1497 297 
Q 1463 116 1431 -25 
L 972 63 
Q 1194 1063 1316 1925 
L 319 1925 
L 319 2322 
L 1375 2322 
L 1381 2366 
Q 1466 2978 1528 3675 
z
M 3500 3291 
L 3488 3169 
Q 3453 2759 3409 2316 
L 4684 2316 
Q 4713 2934 4722 3291 
L 3500 3291 
z
M 3059 3291 
L 1919 3291 
Q 1919 3241 1913 3213 
Q 1903 2997 1816 2316 
L 2963 2316 
Q 3000 2625 3059 3291 
z
M 2925 1931 
L 1766 1931 
Q 1703 1400 1606 897 
L 2781 897 
Q 2844 1306 2909 1847 
L 2925 1931 
z
M 3372 1931 
Q 3275 1175 3238 897 
L 4594 897 
Q 4622 1241 4672 1931 
L 3372 1931 
z
M 1856 4628 
L 5816 4628 
L 5816 4231 
L 1669 4231 
Q 1325 3572 850 3041 
L 509 3369 
Q 1272 4175 1625 5350 
L 2084 5263 
Q 1959 4869 1856 4628 
z
" id="IPAexGothic-6bce" transform="scale(0.015625)"/>
      <path d="M 5231 4800 
L 5231 -288 
L 4744 -288 
L 4744 128 
L 1647 128 
L 1647 -288 
L 1159 -288 
L 1159 4800 
L 5231 4800 
z
M 1647 4372 
L 1647 2731 
L 4744 2731 
L 4744 4372 
L 1647 4372 
z
M 1647 2297 
L 1647 556 
L 4744 556 
L 4744 2297 
L 1647 2297 
z
" id="IPAexGothic-65e5" transform="scale(0.015625)"/>
     </defs>
     <use xlink:href="#IPAexGothic-6bce"/>
     <use x="100" xlink:href="#IPAexGothic-65e5"/>
    </g>
   </g>
   <g id="text_51">
    <!-- 何 -->
    <g style="fill:#8cfff6;" transform="translate(541.348418 354.335028)scale(0.1 -0.1)">
     <use xlink:href="#IPAexGothic-4f55"/>
    </g>
   </g>
   <g id="text_52">
    <!-- 出張 -->
    <g style="fill:#8cfff6;" transform="translate(565.494381 443.43022)scale(0.1 -0.1)">
     <defs>
      <path d="M 3419 2956 
L 4928 2956 
L 4928 4500 
L 5397 4500 
L 5397 2203 
L 4928 2203 
L 4928 2541 
L 3419 2541 
L 3419 384 
L 5194 384 
L 5194 1813 
L 5653 1813 
L 5653 -447 
L 5194 -447 
L 5194 -31 
L 1203 -31 
L 1203 -447 
L 744 -447 
L 744 1813 
L 1203 1813 
L 1203 384 
L 2938 384 
L 2938 2541 
L 1459 2541 
L 1459 2203 
L 1000 2203 
L 1000 4500 
L 1459 4500 
L 1459 2956 
L 2938 2956 
L 2938 5144 
L 3419 5144 
L 3419 2956 
z
" id="IPAexGothic-51fa" transform="scale(0.015625)"/>
      <path d="M 2334 2222 
Q 2288 525 2163 -25 
Q 2069 -447 1497 -447 
Q 1097 -447 750 -403 
L 666 78 
Q 1063 -6 1441 -6 
Q 1709 -6 1747 200 
Q 1844 650 1881 1753 
L 1881 1825 
L 866 1825 
Q 800 1409 794 1384 
L 378 1472 
Q 559 2597 609 3591 
L 1916 3591 
L 1916 4581 
L 397 4581 
L 397 4978 
L 2341 4978 
L 2341 2881 
L 1916 2881 
L 1916 3206 
L 1006 3206 
L 994 3009 
Q 963 2597 916 2222 
L 2334 2222 
z
M 3553 4594 
L 3553 4128 
L 5550 4128 
L 5550 3756 
L 3553 3756 
L 3553 3291 
L 5550 3291 
L 5550 2919 
L 3553 2919 
L 3553 2419 
L 6072 2419 
L 6072 2034 
L 4384 2034 
Q 4522 1569 4775 1184 
Q 5206 1547 5509 1913 
L 5888 1631 
Q 5422 1209 4991 894 
Q 5413 391 6188 63 
L 5900 -347 
Q 4381 466 4006 2034 
L 3553 2034 
L 3553 228 
Q 4003 328 4622 513 
L 4666 128 
Q 3659 -225 2675 -422 
L 2516 25 
Q 2569 34 2728 66 
Q 2869 91 2963 109 
L 3122 141 
L 3122 2034 
L 2497 2034 
L 2497 2419 
L 3122 2419 
L 3122 4978 
L 5759 4978 
L 5759 4594 
L 3553 4594 
z
" id="IPAexGothic-5f35" transform="scale(0.015625)"/>
     </defs>
     <use xlink:href="#IPAexGothic-51fa"/>
     <use x="100" xlink:href="#IPAexGothic-5f35"/>
    </g>
   </g>
   <g id="text_53">
    <!-- 大切 -->
    <g style="fill:#8cfff6;" transform="translate(544.945693 295.483528)scale(0.1 -0.1)">
     <defs>
      <path d="M 4197 4281 
Q 4197 2691 4025 1778 
Q 3747 344 2456 -447 
L 2119 -72 
Q 3397 631 3616 2150 
Q 3731 2975 3731 4281 
L 2700 4281 
L 2700 4709 
L 5816 4709 
Q 5816 1153 5638 331 
Q 5513 -238 4825 -238 
Q 4409 -238 4038 -194 
L 3941 325 
Q 4419 238 4734 238 
Q 5119 238 5197 622 
Q 5325 1322 5344 3922 
L 5344 4281 
L 4197 4281 
z
M 1525 3206 
L 1525 1528 
Q 1525 1378 1575 1334 
Q 1638 1291 1872 1291 
Q 2316 1291 2381 1444 
Q 2434 1556 2453 2216 
L 2925 2047 
Q 2897 1272 2772 1081 
Q 2619 850 1825 850 
Q 1341 850 1197 966 
Q 1056 1069 1056 1338 
L 1056 3150 
L 319 3059 
L 269 3500 
L 1056 3591 
L 1056 5075 
L 1525 5075 
L 1525 3641 
L 2959 3809 
L 2991 3378 
L 1525 3206 
z
" id="IPAexGothic-5207" transform="scale(0.015625)"/>
     </defs>
     <use xlink:href="#IPAexGothic-5927"/>
     <use x="100" xlink:href="#IPAexGothic-5207"/>
    </g>
   </g>
  </g>
 </g>
 <defs>
  <clipPath id="p3f6709877f">
   <rect height="1130.4" width="626.4" x="10.8" y="10.8"/>
  </clipPath>
 </defs>
</svg>
